<svg width="33" height="33" viewBox="0 0 33 33" fill="none" xmlns="http://www.w3.org/2000/svg">
<g clip-path="url(#clip0_25_321)">
<path d="M25.69 4.85L23.79 0L22.53 1.78C20.57 0.84 18.41 0.34 16.2199 0.34C11.66 0.34 7.39995 2.52 4.67995 6.03H0.949951C0.539951 6.03 0.199951 6.37 0.199951 6.78V11.9C0.199951 12.31 0.539951 12.65 0.949951 12.65H6.06995C6.47995 12.65 6.81995 12.31 6.81995 11.9V6.78C6.81995 6.53 6.68995 6.32 6.49995 6.18C8.94995 3.48 12.4699 1.84 16.2299 1.84C18.1099 1.84 19.9599 2.25 21.66 3.02L20.49 4.67L25.69 4.85Z" fill="#1E1D1C"/>
<path d="M18.53 25.64H13.41C13 25.64 12.66 25.98 12.66 26.39V27.53C8.33 26.29 4.84 22.84 3.61 18.44L5.69 18.23L2.42 14.18L0 18.79L2.1 18.58C3.44 23.75 7.57 27.76 12.67 29.07V31.51C12.67 31.92 13.01 32.26 13.42 32.26H18.54C18.95 32.26 19.29 31.92 19.29 31.51V26.39C19.29 25.98 18.95 25.64 18.54 25.64H18.53Z" fill="#1E1D1C"/>
<path d="M31.6 6.03H26.48C26.07 6.03 25.73 6.37 25.73 6.78V11.9C25.73 12.31 26.07 12.65 26.48 12.65H29.12C29.25 13.4 29.33 14.17 29.33 14.94C29.33 18.89 27.52 22.62 24.47 25.1L23.26 23.17L21.1 27.9L26.3 28.01L25.27 26.37C28.76 23.61 30.83 19.4 30.83 14.94C30.83 14.17 30.76 13.41 30.64 12.65H31.61C32.02 12.65 32.36 12.31 32.36 11.9V6.78C32.36 6.37 32.02 6.03 31.61 6.03H31.6Z" fill="#1E1D1C"/>
<path d="M11.84 9.67002V20.2C11.84 20.82 12.49 21.23 13.05 20.95L23.58 15.69C24.2 15.38 24.2 14.5 23.58 14.19L13.05 8.93002C12.49 8.65002 11.84 9.06002 11.84 9.68002V9.67002Z" fill="white"/>
<path d="M12.67 21.79C12.38 21.79 12.09 21.71 11.84 21.55C11.37 21.26 11.09 20.75 11.09 20.2V9.67001C11.09 9.12001 11.37 8.61001 11.84 8.32001C12.31 8.03001 12.89 8.00001 13.38 8.25001L23.91 13.51C24.45 13.78 24.79 14.33 24.79 14.93C24.79 15.53 24.45 16.08 23.91 16.35L13.38 21.61C13.15 21.72 12.91 21.78 12.67 21.78V21.79ZM12.71 9.60001L12.59 9.68001V20.21L13.05 20.96L12.71 20.29L23.24 15.03L23.58 14.2L23.24 14.87L12.71 9.61001V9.60001Z" fill="#1E1D1C"/>
</g>
<defs>
<clipPath id="clip0_25_321">
<rect width="32.35" height="32.26" fill="white"/>
</clipPath>
</defs>
</svg>
