<svg width="29" height="25" viewBox="0 0 29 25" fill="none" xmlns="http://www.w3.org/2000/svg">
<g clip-path="url(#clip0_41_446)">
<path d="M28.16 0.75H0.75V23.52H28.16V0.75Z" fill="white"/>
<path d="M28.16 24.27H0.75C0.34 24.27 0 23.93 0 23.52V0.75C0 0.34 0.34 0 0.75 0H28.16C28.57 0 28.91 0.34 28.91 0.75V23.52C28.91 23.93 28.57 24.27 28.16 24.27ZM1.5 22.77H27.41V1.5H1.5V22.77Z" fill="#1E1D1C"/>
<path d="M28.16 0H0.75C0.335786 0 0 0.335786 0 0.75V4.77C0 5.18421 0.335786 5.52 0.75 5.52H28.16C28.5742 5.52 28.91 5.18421 28.91 4.77V0.75C28.91 0.335786 28.5742 0 28.16 0Z" fill="#1E1D1C"/>
<path d="M7.83 19.03C7.61 19.03 7.39 18.93 7.25 18.75C6.99 18.43 7.04 17.96 7.36 17.7L11.81 14.12L7.36 10.55C7.04 10.29 6.99 9.82 7.25 9.5C7.51 9.18 7.98 9.13 8.3 9.38L13.47 13.54C13.65 13.68 13.75 13.9 13.75 14.12C13.75 14.34 13.65 14.56 13.47 14.7L8.3 18.86C8.16 18.97 8 19.03 7.83 19.03Z" fill="#1E1D1C"/>
<path d="M15.2299 20.72C15.1099 20.72 14.9799 20.69 14.8699 20.63C14.5099 20.43 14.3699 19.97 14.5699 19.61L20.9999 7.91C21.1999 7.55 21.6499 7.41 22.0199 7.61C22.3799 7.81 22.5199 8.27 22.3199 8.63L15.8899 20.33C15.7499 20.58 15.4999 20.72 15.2299 20.72Z" fill="#1E1D1C"/>
</g>
<defs>
<clipPath id="clip0_41_446">
<rect width="28.91" height="24.27" fill="white"/>
</clipPath>
</defs>
</svg>
