<svg width="30" height="30" viewBox="0 0 30 30" fill="none" xmlns="http://www.w3.org/2000/svg">
<g clip-path="url(#clip0_25_329)">
<path d="M20.96 29.29H19.96C19.55 29.29 19.21 28.95 19.21 28.54C19.21 28.13 19.55 27.79 19.96 27.79H20.21V27.72C20.21 27.31 20.55 26.97 20.96 26.97C21.37 26.97 21.71 27.31 21.71 27.72V28.54C21.71 28.95 21.37 29.29 20.96 29.29ZM15.96 29.29H14.96C14.55 29.29 14.21 28.95 14.21 28.54C14.21 28.13 14.55 27.79 14.96 27.79H15.96C16.37 27.79 16.71 28.13 16.71 28.54C16.71 28.95 16.37 29.29 15.96 29.29ZM10.96 29.29H9.96C9.55 29.29 9.21 28.95 9.21 28.54C9.21 28.13 9.55 27.79 9.96 27.79H10.96C11.37 27.79 11.71 28.13 11.71 28.54C11.71 28.95 11.37 29.29 10.96 29.29ZM5.96 29.29H4.96C4.55 29.29 4.21 28.95 4.21 28.54C4.21 28.13 4.55 27.79 4.96 27.79H5.96C6.37 27.79 6.71 28.13 6.71 28.54C6.71 28.95 6.37 29.29 5.96 29.29ZM0.96 29.29H0.75C0.34 29.29 0 28.95 0 28.54V27.75C0 27.34 0.34 27 0.75 27C1.16 27 1.5 27.34 1.5 27.75V28.03C1.63 28.16 1.71 28.35 1.71 28.55C1.71 28.96 1.37 29.3 0.96 29.3V29.29ZM0.75 24.5C0.34 24.5 0 24.16 0 23.75V22.75C0 22.34 0.34 22 0.75 22C1.16 22 1.5 22.34 1.5 22.75V23.75C1.5 24.16 1.16 24.5 0.75 24.5ZM20.96 24.47C20.55 24.47 20.21 24.13 20.21 23.72V22.72C20.21 22.31 20.55 21.97 20.96 21.97C21.37 21.97 21.71 22.31 21.71 22.72V23.72C21.71 24.13 21.37 24.47 20.96 24.47ZM0.75 19.5C0.34 19.5 0 19.16 0 18.75V17.75C0 17.34 0.34 17 0.75 17C1.16 17 1.5 17.34 1.5 17.75V18.75C1.5 19.16 1.16 19.5 0.75 19.5ZM20.96 19.47C20.55 19.47 20.21 19.13 20.21 18.72V17.72C20.21 17.31 20.55 16.97 20.96 16.97C21.37 16.97 21.71 17.31 21.71 17.72V18.72C21.71 19.13 21.37 19.47 20.96 19.47ZM0.75 14.5C0.34 14.5 0 14.16 0 13.75V12.75C0 12.34 0.34 12 0.75 12C1.16 12 1.5 12.34 1.5 12.75V13.75C1.5 14.16 1.16 14.5 0.75 14.5ZM20.96 14.47C20.55 14.47 20.21 14.13 20.21 13.72V12.72C20.21 12.31 20.55 11.97 20.96 11.97C21.37 11.97 21.71 12.31 21.71 12.72V13.72C21.71 14.13 21.37 14.47 20.96 14.47ZM0.75 9.49999C0.34 9.49999 0 9.15999 0 8.74999V8.33999C0 7.92999 0.34 7.58999 0.75 7.58999H1.34C1.75 7.58999 2.09 7.92999 2.09 8.33999C2.09 8.72999 1.8 9.04999 1.42 9.08999C1.3 9.33999 1.04 9.49999 0.75 9.49999ZM20.96 9.46999C20.68 9.46999 20.43 9.30999 20.3 9.07999C19.9 9.05999 19.59 8.72999 19.59 8.32999C19.59 7.92999 19.93 7.57999 20.34 7.57999H20.96C21.37 7.57999 21.71 7.91999 21.71 8.32999V8.70999C21.71 9.11999 21.37 9.45999 20.96 9.45999V9.46999ZM16.34 9.08999H15.34C14.93 9.08999 14.59 8.74999 14.59 8.33999C14.59 7.92999 14.93 7.58999 15.34 7.58999H16.34C16.75 7.58999 17.09 7.92999 17.09 8.33999C17.09 8.74999 16.75 9.08999 16.34 9.08999ZM11.34 9.08999H10.34C9.93 9.08999 9.59 8.74999 9.59 8.33999C9.59 7.92999 9.93 7.58999 10.34 7.58999H11.34C11.75 7.58999 12.09 7.92999 12.09 8.33999C12.09 8.74999 11.75 9.08999 11.34 9.08999ZM6.34 9.08999H5.34C4.93 9.08999 4.59 8.74999 4.59 8.33999C4.59 7.92999 4.93 7.58999 5.34 7.58999H6.34C6.75 7.58999 7.09 7.92999 7.09 8.33999C7.09 8.74999 6.75 9.08999 6.34 9.08999Z" fill="#1E1D1C"/>
<path d="M13.9599 19.53L8.91992 20.37L9.75992 15.33L24.3399 0.75L28.5399 4.95L13.9599 19.53Z" fill="white"/>
<path d="M8.91994 21.12C8.71994 21.12 8.52994 21.04 8.38994 20.9C8.21994 20.73 8.13994 20.49 8.17994 20.25L9.00994 15.21C9.03994 15.05 9.10994 14.91 9.21994 14.8L23.8099 0.220002C24.0999 -0.0699975 24.5799 -0.0699975 24.8699 0.220002L29.0699 4.42C29.2099 4.56 29.2899 4.75 29.2899 4.95C29.2899 5.15 29.2099 5.34 29.0699 5.48L14.4899 20.06C14.3799 20.17 14.2399 20.24 14.0799 20.27L9.03994 21.1C9.03994 21.1 8.95994 21.1 8.91994 21.1V21.12ZM10.4599 15.7L9.83994 19.47L13.6099 18.85L27.4799 4.95L24.3399 1.81L10.4599 15.69V15.7Z" fill="#1E1D1C"/>
<path d="M25.68 8.55999C25.49 8.55999 25.3 8.48999 25.15 8.33999L20.95 4.13999C20.66 3.84999 20.66 3.36999 20.95 3.07999C21.24 2.78999 21.72 2.78999 22.01 3.07999L26.21 7.27999C26.5 7.56999 26.5 8.04999 26.21 8.33999C26.06 8.48999 25.87 8.55999 25.68 8.55999Z" fill="#1E1D1C"/>
</g>
<defs>
<clipPath id="clip0_25_329">
<rect width="29.29" height="29.29" fill="white"/>
</clipPath>
</defs>
</svg>
