<svg width="28" height="33" viewBox="0 0 28 33" fill="none" xmlns="http://www.w3.org/2000/svg">
<g clip-path="url(#clip0_41_437)">
<path d="M21.56 26.15H6.4V21.89H10.55C10.96 21.89 11.3 21.55 11.3 21.14V11.33C11.3 10.92 10.96 10.58 10.55 10.58H6.4V6.39999H21.56C21.97 6.39999 22.31 6.05999 22.31 5.64999C22.31 5.23999 21.97 4.89999 21.56 4.89999H5.65C5.24 4.89999 4.9 5.23999 4.9 5.64999V10.58H0.75C0.34 10.58 0 10.92 0 11.33V21.14C0 21.55 0.34 21.89 0.75 21.89H4.9V26.9C4.9 27.31 5.24 27.65 5.65 27.65H21.56C21.97 27.65 22.31 27.31 22.31 26.9C22.31 26.49 21.97 26.15 21.56 26.15Z" fill="#1E1D1C"/>
<path d="M26.47 0.75H16.66V10.56H26.47V0.75Z" fill="white"/>
<path d="M26.46 11.31H16.65C16.24 11.31 15.9 10.97 15.9 10.56V0.75C15.9 0.34 16.24 0 16.65 0H26.46C26.87 0 27.21 0.34 27.21 0.75V10.56C27.21 10.97 26.87 11.31 26.46 11.31ZM17.4 9.81H25.71V1.5H17.4V9.81Z" fill="#1E1D1C"/>
<path d="M26.47 22H16.66V31.81H26.47V22Z" fill="white"/>
<path d="M26.46 32.56H16.65C16.24 32.56 15.9 32.22 15.9 31.81V22C15.9 21.59 16.24 21.25 16.65 21.25H26.46C26.87 21.25 27.21 21.59 27.21 22V31.81C27.21 32.22 26.87 32.56 26.46 32.56ZM17.4 31.06H25.71V22.75H17.4V31.06Z" fill="#1E1D1C"/>
</g>
<defs>
<clipPath id="clip0_41_437">
<rect width="27.21" height="32.56" fill="white"/>
</clipPath>
</defs>
</svg>
