<svg width="30" height="27" viewBox="0 0 30 27" fill="none" xmlns="http://www.w3.org/2000/svg">
<g clip-path="url(#clip0_25_336)">
<path d="M14.45 11.63H0.75V25.33H14.45V11.63Z" fill="white"/>
<path d="M14.45 26.08H0.75C0.34 26.08 0 25.74 0 25.33V11.63C0 11.22 0.34 10.88 0.75 10.88H14.45C14.86 10.88 15.2 11.22 15.2 11.63V25.33C15.2 25.74 14.86 26.08 14.45 26.08ZM1.5 24.58H13.7V12.38H1.5V24.58Z" fill="#1E1D1C"/>
<path d="M14.26 19.97C19.5675 19.97 23.87 15.6675 23.87 10.36C23.87 5.05254 19.5675 0.75 14.26 0.75C8.95257 0.75 4.65002 5.05254 4.65002 10.36C4.65002 15.6675 8.95257 19.97 14.26 19.97Z" fill="white"/>
<path d="M14.26 20.71C8.55002 20.71 3.90002 16.06 3.90002 10.35C3.90002 4.64 8.55002 0 14.26 0C19.97 0 24.62 4.65 24.62 10.36C24.62 16.07 19.97 20.72 14.26 20.72V20.71ZM14.26 1.5C9.38002 1.5 5.40002 5.47 5.40002 10.36C5.40002 15.25 9.37003 19.22 14.26 19.22C19.15 19.22 23.12 15.25 23.12 10.36C23.12 5.47 19.15 1.5 14.26 1.5Z" fill="#1E1D1C"/>
<path d="M16.46 7.85999H4.82002C4.46002 7.85999 4.15002 8.11999 4.08002 8.46999C3.96002 9.11999 3.90002 9.73999 3.90002 10.35C3.90002 16.06 8.55002 20.71 14.26 20.71C15.03 20.71 15.83 20.62 16.63 20.43C16.97 20.35 17.21 20.05 17.21 19.7V8.60998C17.21 8.19998 16.87 7.85999 16.46 7.85999Z" fill="#1E1D1C"/>
<path d="M28.36 25.45C28.1 25.45 27.85 25.35 27.65 25.16L20.71 18.23C20.32 17.84 20.32 17.21 20.71 16.82C21.1 16.43 21.73 16.43 22.12 16.82L29.06 23.75C29.45 24.14 29.45 24.77 29.06 25.16C28.86 25.36 28.61 25.45 28.35 25.45H28.36Z" fill="#1E1D1C"/>
</g>
<defs>
<clipPath id="clip0_25_336">
<rect width="29.36" height="26.08" fill="white"/>
</clipPath>
</defs>
</svg>
