<svg width="1614" height="871" viewBox="0 0 1614 871" fill="none" xmlns="http://www.w3.org/2000/svg">
<path d="M54.68 559.31L1 528.25L914.13 1.24008L1021.65 63.3101L1129.13 1.08008L1612.53 280.12L1021.73 621.17L968.25 590.2L806.68 683.43L860.24 714.39L591.8 869.36L377.09 745.55L323.62 776.41L1.16 590.2L54.68 559.31Z" stroke="#E5E5E5" stroke-width="2" stroke-linecap="round" stroke-linejoin="round"/>
<path d="M1075.34 32.0701L1558.78 311.13" stroke="#E5E5E5" stroke-width="2" stroke-linecap="round" stroke-linejoin="round"/>
<path d="M914.13 1.25L1504.82 342.2" stroke="#E5E5E5" stroke-width="2" stroke-linecap="round" stroke-linejoin="round"/>
<path d="M860.66 32.1001L1451.32 373.05" stroke="#E5E5E5" stroke-width="2" stroke-linecap="round" stroke-linejoin="round"/>
<path d="M806.91 63.3L1397.36 404.12" stroke="#E5E5E5" stroke-width="2" stroke-linecap="round" stroke-linejoin="round"/>
<path d="M753.33 94.1599L1344.01 435.12" stroke="#E5E5E5" stroke-width="2" stroke-linecap="round" stroke-linejoin="round"/>
<path d="M699.36 125.23L1290.05 466.19" stroke="#E5E5E5" stroke-width="2" stroke-linecap="round" stroke-linejoin="round"/>
<path d="M645.6 156.22L1236.39 497.24" stroke="#E5E5E5" stroke-width="2" stroke-linecap="round" stroke-linejoin="round"/>
<path d="M591.7 187.33L1182.43 528.32" stroke="#E5E5E5" stroke-width="2" stroke-linecap="round" stroke-linejoin="round"/>
<path d="M538.48 218.05L1129.17 559.01" stroke="#E5E5E5" stroke-width="2" stroke-linecap="round" stroke-linejoin="round"/>
<path d="M484.95 249.37L1075.21 590.09" stroke="#E5E5E5" stroke-width="2" stroke-linecap="round" stroke-linejoin="round"/>
<path d="M430.99 280.08L1021.65 621.03" stroke="#E5E5E5" stroke-width="2" stroke-linecap="round" stroke-linejoin="round"/>
<path d="M377.09 311.19L914.34 621.31" stroke="#E5E5E5" stroke-width="2" stroke-linecap="round" stroke-linejoin="round"/>
<path d="M323.37 342.23L860.86 652.48" stroke="#E5E5E5" stroke-width="2" stroke-linecap="round" stroke-linejoin="round"/>
<path d="M269.69 373.47L860.21 714.33" stroke="#E5E5E5" stroke-width="2" stroke-linecap="round" stroke-linejoin="round"/>
<path d="M215.99 404.17L806.84 745.23" stroke="#E5E5E5" stroke-width="2" stroke-linecap="round" stroke-linejoin="round"/>
<path d="M162.08 435.28L752.87 776.3" stroke="#E5E5E5" stroke-width="2" stroke-linecap="round" stroke-linejoin="round"/>
<path d="M108.71 466.19L699.08 807.43" stroke="#E5E5E5" stroke-width="2" stroke-linecap="round" stroke-linejoin="round"/>
<path d="M54.75 497.26L645.11 838.51" stroke="#E5E5E5" stroke-width="2" stroke-linecap="round" stroke-linejoin="round"/>
<path d="M1.06982 528.37L591.8 869.36" stroke="#E5E5E5" stroke-width="2" stroke-linecap="round" stroke-linejoin="round"/>
<path d="M1558.89 249.16L538.06 838.37" stroke="#E5E5E5" stroke-width="2" stroke-linecap="round" stroke-linejoin="round"/>
<path d="M1505.34 218.2L484.42 807.45" stroke="#E5E5E5" stroke-width="2" stroke-linecap="round" stroke-linejoin="round"/>
<path d="M1451.66 187.2L377.21 807.36" stroke="#E5E5E5" stroke-width="2" stroke-linecap="round" stroke-linejoin="round"/>
<path d="M1398.1 156.24L323.62 776.41" stroke="#E5E5E5" stroke-width="2" stroke-linecap="round" stroke-linejoin="round"/>
<path d="M1344.12 125.12L269.69 745.27" stroke="#E5E5E5" stroke-width="2" stroke-linecap="round" stroke-linejoin="round"/>
<path d="M1290.56 94.1599L216.11 714.32" stroke="#E5E5E5" stroke-width="2" stroke-linecap="round" stroke-linejoin="round"/>
<path d="M1236.73 63.1101L161.99 683.43" stroke="#E5E5E5" stroke-width="2" stroke-linecap="round" stroke-linejoin="round"/>
<path d="M1183.17 32.1499L108.72 652.31" stroke="#E5E5E5" stroke-width="2" stroke-linecap="round" stroke-linejoin="round"/>
<path d="M1129.17 1L54.75 621.14" stroke="#E5E5E5" stroke-width="2" stroke-linecap="round" stroke-linejoin="round"/>
<path d="M967.84 32.25L1.16016 590.2" stroke="#E5E5E5" stroke-width="2" stroke-linecap="round" stroke-linejoin="round"/>
<path d="M879.59 209.38L1057.3 106.81C1058.54 106.1 1060.06 106.1 1061.3 106.81L1087.03 121.62C1088.37 122.39 1088.37 124.32 1087.03 125.09L908.84 227.41C907.6 228.12 906.08 228.12 904.85 227.41L879.6 212.85C878.27 212.08 878.27 210.16 879.6 209.39L879.59 209.38Z" fill="#E5E5E5" stroke="#1E1D1C" stroke-width="2" stroke-linecap="round" stroke-linejoin="round"/>
<path d="M922.24 234.14L1099.95 131.57C1101.19 130.86 1102.71 130.86 1103.95 131.57L1129.68 146.38C1131.02 147.15 1131.02 149.08 1129.68 149.85L951.49 252.17C950.25 252.88 948.73 252.88 947.5 252.17L922.25 237.61C920.92 236.84 920.92 234.92 922.25 234.15L922.24 234.14Z" fill="#E5E5E5" stroke="#1E1D1C" stroke-width="2" stroke-linecap="round" stroke-linejoin="round"/>
<path d="M966.69 258.63L1144.4 156.06C1145.64 155.35 1147.16 155.35 1148.4 156.06L1174.13 170.87C1175.47 171.64 1175.47 173.57 1174.13 174.34L995.94 276.66C994.7 277.37 993.18 277.37 991.95 276.66L966.7 262.1C965.37 261.33 965.37 259.41 966.7 258.64L966.69 258.63Z" fill="#E5E5E5" stroke="#1E1D1C" stroke-width="2" stroke-linecap="round" stroke-linejoin="round"/>
<path d="M726.32 233.58L994.77 389.03L1236.33 249.61L967.68 94.23L726.32 233.58Z" stroke="#1E1D1C" stroke-width="2" stroke-linecap="round" stroke-linejoin="round"/>
<path d="M784.68 213.35L962.39 110.78C963.63 110.07 965.15 110.07 966.39 110.78L992.12 125.59C993.46 126.36 993.46 128.29 992.12 129.06L813.93 231.38C812.69 232.09 811.17 232.09 809.94 231.38L784.69 216.82C783.36 216.05 783.36 214.13 784.69 213.36L784.68 213.35Z" fill="white" stroke="#1E1D1C" stroke-width="2" stroke-linecap="round" stroke-linejoin="round"/>
<path d="M1218.51 431.31L1217.9 431.53C1216.75 427.21 1213.98 423.26 1209.58 420.71L1209.52 420.67C1192.97 411.09 1172.56 411.08 1155.99 420.65L1049.09 482.23C1044.46 484.9 1041.63 489.14 1040.6 493.72L1040.15 493.88V497.55C1040.09 503.65 1043.08 509.78 1049.14 513.26C1065.72 522.76 1086.1 522.74 1102.66 513.2L1209.55 451.71C1215.55 448.25 1218.53 442.18 1218.51 436.13V431.33V431.31Z" fill="#1E1D1C" stroke="#1E1D1C" stroke-width="2" stroke-linecap="round" stroke-linejoin="round"/>
<path d="M635.15 366.98L968.11 559.22L1037.02 519.35" stroke="#1E1D1C" stroke-width="2" stroke-linecap="round" stroke-linejoin="round"/>
<path d="M834.78 394L789.55 367.95C788.31 367.24 786.79 367.24 785.55 367.95L641.41 451.21L628.24 455.11V459.94C628.23 460.62 628.56 461.31 629.24 461.7L677.75 489.75C678.99 490.47 680.51 490.47 681.75 489.75L838.13 399.4C838.76 399.04 839.08 398.42 839.11 397.79H839.13V392.72L834.77 394.01L834.78 394Z" fill="white" stroke="#1E1D1C" stroke-width="2" stroke-linecap="round" stroke-linejoin="round"/>
<path d="M514.36 329.45L577.8 293.01C586.46 288.04 597.11 288.05 605.75 293.04L669.05 329.61C675.72 333.46 675.71 343.09 669.04 346.94L605.62 383.43C596.95 388.42 586.29 388.4 577.63 383.4L514.33 346.78C507.66 342.92 507.68 333.29 514.36 329.45Z" fill="white" stroke="#1E1D1C" stroke-width="2" stroke-linecap="round" stroke-linejoin="round"/>
<path d="M514.36 308.71L577.8 272.27C586.46 267.3 597.11 267.31 605.75 272.3L669.05 308.87C675.72 312.72 675.71 322.35 669.04 326.2L605.62 362.69C596.95 367.68 586.29 367.66 577.63 362.66L514.33 326.04C507.66 322.18 507.68 312.55 514.36 308.71Z" fill="white" stroke="#1E1D1C" stroke-width="2" stroke-linecap="round" stroke-linejoin="round"/>
<path d="M514.36 289.32L577.8 252.88C586.46 247.91 597.11 247.92 605.75 252.91L669.05 289.48C675.72 293.33 675.71 302.96 669.04 306.81L605.62 343.3C596.95 348.29 586.29 348.27 577.63 343.27L514.33 306.65C507.66 302.79 507.68 293.16 514.36 289.32Z" fill="white" stroke="#1E1D1C" stroke-width="2" stroke-linecap="round" stroke-linejoin="round"/>
<path d="M152.23 398.97L737.58 736.75" stroke="#1E1D1C" stroke-width="2" stroke-linecap="round" stroke-linejoin="round"/>
<path d="M328.13 417.75V409.2L314.91 407.81L255.71 373.53C253.24 372.1 250.19 372.09 247.72 373.52L121.63 445.91L94.1802 455.32V464.08C94.2102 465.4 94.8702 466.7 96.1702 467.45L167.13 508.42C169.61 509.85 172.65 509.85 175.13 508.42L326.13 421.24C327.47 420.47 328.14 419.11 328.13 417.76V417.75Z" fill="#1E1D1C" stroke="#1E1D1C" stroke-width="2" stroke-linecap="round" stroke-linejoin="round"/>
<path d="M96.1803 458.95L167.14 499.92C169.62 501.35 172.66 501.35 175.14 499.92L326.14 412.74C328.8 411.2 328.81 407.36 326.14 405.81L255.72 365.04C253.25 363.61 250.2 363.6 247.73 365.03L96.1903 452.03C93.5203 453.57 93.5103 457.42 96.1903 458.96L96.1803 458.95Z" fill="#E5E5E5" stroke="#1E1D1C" stroke-width="2" stroke-linecap="round" stroke-linejoin="round"/>
<path d="M429.62 476.69V468.14L416.4 466.75L357.2 432.47C354.73 431.04 351.68 431.03 349.21 432.46L223.12 504.85L195.67 514.26V523.02C195.7 524.34 196.36 525.64 197.66 526.39L268.62 567.36C271.1 568.79 274.14 568.79 276.62 567.36L427.62 480.18C428.96 479.41 429.63 478.05 429.62 476.7V476.69Z" fill="#1E1D1C" stroke="#1E1D1C" stroke-width="2" stroke-linecap="round" stroke-linejoin="round"/>
<path d="M197.66 517.88L268.62 558.85C271.1 560.28 274.14 560.28 276.62 558.85L427.62 471.67C430.28 470.13 430.29 466.29 427.62 464.74L357.2 423.97C354.73 422.54 351.68 422.53 349.21 423.96L197.67 510.96C195 512.5 194.99 516.35 197.67 517.89L197.66 517.88Z" fill="white" stroke="#1E1D1C" stroke-width="2" stroke-linecap="round" stroke-linejoin="round"/>
<path d="M557.6 548.881V535.011L542.99 537.891L477.56 500.011C474.83 498.431 471.46 498.421 468.73 499.991L329.37 580.001L299.03 585.981V600.081C299.06 601.541 299.8 602.971 301.23 603.801L379.65 649.081C382.39 650.661 385.76 650.661 388.49 649.081L555.38 552.721C556.86 551.871 557.6 550.371 557.59 548.871L557.6 548.881Z" fill="white" stroke="#1E1D1C" stroke-width="2" stroke-linecap="round" stroke-linejoin="round"/>
<path d="M674.81 617.74V609.19L661.59 607.8L602.39 573.52C599.92 572.09 596.87 572.08 594.4 573.51L468.31 645.9L440.86 655.31V664.07C440.89 665.39 441.55 666.69 442.85 667.44L513.81 708.41C516.29 709.84 519.33 709.84 521.81 708.41L672.81 621.23C674.15 620.46 674.82 619.1 674.81 617.75V617.74Z" fill="#1E1D1C" stroke="#1E1D1C" stroke-width="2" stroke-linecap="round" stroke-linejoin="round"/>
<path d="M442.86 658.94L513.82 699.91C516.3 701.34 519.34 701.34 521.82 699.91L672.82 612.73C675.48 611.19 675.49 607.35 672.82 605.8L602.4 565.03C599.93 563.6 596.88 563.59 594.41 565.02L442.87 652.02C440.2 653.56 440.19 657.41 442.87 658.95L442.86 658.94Z" fill="white" stroke="#1E1D1C" stroke-width="2" stroke-linecap="round" stroke-linejoin="round"/>
<path d="M319.56 804.05L382.8 840.56C385.01 841.83 387.72 841.83 389.93 840.56L524.51 762.86C526.88 761.49 526.89 758.06 524.51 756.69L461.75 720.35C459.55 719.08 456.83 719.07 454.63 720.34L319.58 797.87C317.2 799.24 317.19 802.67 319.58 804.05H319.56Z" fill="#E5E5E5" stroke="#E5E5E5" stroke-width="2" stroke-linecap="round" stroke-linejoin="round"/>
<path d="M776.3 676.68V668.13L763.08 666.74L703.88 632.46C701.41 631.03 698.36 631.02 695.89 632.45L569.8 704.84L542.35 714.25V723.01C542.38 724.33 543.04 725.63 544.34 726.38L615.3 767.35C617.78 768.78 620.82 768.78 623.3 767.35L774.3 680.17C775.64 679.4 776.31 678.04 776.3 676.69V676.68Z" fill="#1E1D1C" stroke="#1E1D1C" stroke-width="2" stroke-linecap="round" stroke-linejoin="round"/>
<path d="M544.34 717.87L615.3 758.84C617.78 760.27 620.82 760.27 623.3 758.84L774.3 671.66C776.96 670.12 776.97 666.28 774.3 664.73L703.88 623.96C701.41 622.53 698.36 622.52 695.89 623.95L544.35 710.95C541.68 712.49 541.67 716.34 544.35 717.88L544.34 717.87Z" fill="white" stroke="#1E1D1C" stroke-width="2" stroke-linecap="round" stroke-linejoin="round"/>
<path d="M522.52 375.33L534.63 382.3L538.2 373.1L522.52 375.33Z" fill="#1E1D1C"/>
<path d="M1023.88 520.13L1035.99 527.09L1039.56 517.89L1023.88 520.13Z" fill="#1E1D1C"/>
<path d="M466.92 538.33L592.01 466.32L484.48 404.24L531.31 377.51" stroke="#1E1D1C" stroke-width="2" stroke-linecap="round" stroke-linejoin="round"/>
<path d="M301.23 589.991L379.65 635.271C382.39 636.851 385.76 636.851 388.49 635.271L555.38 538.911C558.33 537.211 558.33 532.961 555.38 531.261L477.54 486.191C474.81 484.611 471.44 484.601 468.71 486.171L301.22 582.321C298.26 584.021 298.26 588.281 301.22 589.981L301.23 589.991Z" fill="#808080" stroke="#1E1D1C" stroke-width="2" stroke-linecap="round" stroke-linejoin="round"/>
<path d="M413.624 549.645L448.424 569.345C450.824 570.705 453.884 569.615 454.884 567.035L464.774 541.495C465.684 539.145 463.724 536.675 461.234 537.035L414.764 543.655C411.724 544.085 410.964 548.125 413.634 549.635L413.624 549.645Z" fill="white"/>
<path d="M381.624 567.645L416.424 587.345C418.824 588.705 421.884 587.615 422.884 585.035L432.774 559.495C433.684 557.145 431.724 554.675 429.234 555.035L382.764 561.655C379.724 562.085 378.964 566.125 381.634 567.635L381.624 567.645Z" fill="white"/>
<path d="M674.05 296.02L764.83 242.89" stroke="#1E1D1C" stroke-width="2" stroke-linecap="round" stroke-linejoin="round"/>
<path d="M514.36 269.94L577.8 233.5C586.46 228.53 597.11 228.54 605.75 233.53L669.05 270.1C675.72 273.95 675.71 283.58 669.04 287.43L605.62 323.92C596.95 328.91 586.29 328.89 577.63 323.89L514.33 287.27C507.66 283.41 507.68 273.78 514.36 269.94Z" fill="#808080" stroke="#1E1D1C" stroke-width="2" stroke-linecap="round" stroke-linejoin="round"/>
<path d="M687.106 388.549C687.119 383.832 680.526 379.99 672.38 379.968C664.234 379.945 657.62 383.75 657.606 388.466C657.593 393.183 664.186 397.025 672.332 397.048C680.479 397.07 687.093 393.265 687.106 388.549Z" fill="#1E1D1C" stroke="#1E1D1C" stroke-width="2" stroke-linecap="round" stroke-linejoin="round"/>
<path d="M678.42 386.36L674.68 388.53L678.44 390.7L676.15 392.03L672.39 389.86L668.66 392.03L666.36 390.7L670.09 388.53L666.33 386.36L668.62 385.03L672.38 387.2L676.11 385.03L678.42 386.36Z" fill="white"/>
<path d="M814.893 462.255C814.906 457.539 808.313 453.697 800.167 453.674C792.021 453.651 785.406 457.456 785.393 462.173C785.38 466.889 791.973 470.731 800.119 470.754C808.265 470.777 814.88 466.972 814.893 462.255Z" fill="#1E1D1C" stroke="#1E1D1C" stroke-width="2" stroke-linecap="round" stroke-linejoin="round"/>
<path d="M806.21 460.06L802.48 462.23L806.24 464.41L803.95 465.74L800.19 463.56L796.45 465.73L794.15 464.41L797.89 462.24L794.12 460.06L796.41 458.73L800.18 460.9L803.91 458.73L806.21 460.06Z" fill="white"/>
<path d="M629.24 453.23L785.55 362.94C786.79 362.23 788.31 362.22 789.55 362.94L838.13 390.93C839.46 391.7 839.47 393.62 838.13 394.39L681.75 484.74C680.51 485.46 678.99 485.46 677.75 484.74L629.24 456.69C627.91 455.92 627.91 454 629.24 453.23Z" fill="white" stroke="#1E1D1C" stroke-width="2" stroke-linecap="round" stroke-linejoin="round"/>
<path d="M962.36 467.43L917.13 441.38C915.89 440.67 914.37 440.67 913.13 441.38L768.99 524.64L755.82 528.54V533.37C755.81 534.05 756.14 534.74 756.82 535.13L805.33 563.18C806.57 563.9 808.09 563.9 809.33 563.18L965.71 472.83C966.34 472.47 966.66 471.85 966.69 471.22H966.71V466.15L962.35 467.44L962.36 467.43Z" fill="white" stroke="#1E1D1C" stroke-width="2" stroke-linecap="round" stroke-linejoin="round"/>
<path d="M756.82 526.66L913.13 436.37C914.37 435.66 915.89 435.65 917.13 436.37L965.71 464.36C967.04 465.13 967.05 467.05 965.71 467.82L809.33 558.17C808.09 558.89 806.57 558.89 805.33 558.17L756.82 530.12C755.49 529.35 755.49 527.43 756.82 526.66Z" fill="white" stroke="#1E1D1C" stroke-width="2" stroke-linecap="round" stroke-linejoin="round"/>
<path d="M1049.14 509.24C1065.72 518.74 1086.1 518.72 1102.66 509.18L1209.55 447.69C1221.48 440.81 1221.5 423.6 1209.58 416.7L1209.52 416.66C1192.97 407.08 1172.56 407.07 1155.99 416.64L1049.09 478.22C1037.14 485.12 1037.17 502.37 1049.14 509.24Z" fill="#E5E5E5" stroke="#1E1D1C" stroke-width="2" stroke-linecap="round" stroke-linejoin="round"/>
<path d="M636.68 584.06L637.54 583.55" stroke="#1E1D1C" stroke-width="2" stroke-linecap="round" stroke-linejoin="round"/>
<path d="M642.42 580.66L685.54 555.14" stroke="#1E1D1C" stroke-width="2" stroke-linecap="round" stroke-linejoin="round"/>
<path d="M687.98 553.7L688.84 553.19L689.7 553.69" stroke="#1E1D1C" stroke-width="2" stroke-linecap="round" stroke-linejoin="round"/>
<path d="M694.9 556.69L886.21 667.12" stroke="#1E1D1C" stroke-width="2" stroke-linecap="round" stroke-linejoin="round"/>
<path d="M888.81 668.62L889.68 669.12" stroke="#1E1D1C" stroke-width="2" stroke-linecap="round" stroke-linejoin="round"/>
<path d="M737.58 643.4L738.44 642.89" stroke="#1E1D1C" stroke-width="2" stroke-linecap="round" stroke-linejoin="round"/>
<path d="M743.56 639.85L816.18 596.87" stroke="#1E1D1C" stroke-width="2" stroke-linecap="round" stroke-linejoin="round"/>
<path d="M818.74 595.35L819.6 594.84L820.47 595.34" stroke="#1E1D1C" stroke-width="2" stroke-linecap="round" stroke-linejoin="round"/>
<path d="M825.79 598.41L915.39 650.07" stroke="#1E1D1C" stroke-width="2" stroke-linecap="round" stroke-linejoin="round"/>
<path d="M918.05 651.6L918.92 652.1" stroke="#1E1D1C" stroke-width="2" stroke-linecap="round" stroke-linejoin="round"/>
<path d="M785.86 237.3V229.92L773.1 237.39L785.86 237.3Z" fill="#1E1D1C"/>
<path d="M816.71 217.72C815.7 218.31 815.69 219.25 816.7 219.84C817.71 220.43 819.35 220.43 820.36 219.84C821.37 219.25 821.38 218.31 820.37 217.72C819.36 217.13 817.72 217.13 816.71 217.72Z" fill="#1A1918"/>
<path d="M810.12 221.52C809.11 222.11 809.1 223.05 810.11 223.64C811.12 224.23 812.76 224.23 813.77 223.64C814.78 223.05 814.79 222.11 813.78 221.52C812.77 220.93 811.13 220.93 810.12 221.52Z" fill="#1A1918"/>
<path d="M803.66 217.77C802.65 218.36 802.64 219.3 803.65 219.89C804.66 220.48 806.3 220.48 807.31 219.89C808.32 219.3 808.33 218.36 807.32 217.77C806.31 217.18 804.67 217.18 803.66 217.77Z" fill="#1A1918"/>
<path d="M810.23 213.95C809.22 214.54 809.21 215.48 810.22 216.07C811.23 216.66 812.87 216.66 813.88 216.07C814.89 215.48 814.9 214.54 813.89 213.95C812.88 213.36 811.24 213.36 810.23 213.95Z" fill="#1A1918"/>
<path d="M803.78 210.16C802.77 210.75 802.76 211.69 803.77 212.28C804.78 212.87 806.42 212.87 807.43 212.28C808.44 211.69 808.45 210.75 807.44 210.16C806.43 209.57 804.79 209.57 803.78 210.16Z" fill="#1A1918"/>
<path d="M797.17 213.99C796.16 214.58 796.15 215.52 797.16 216.11C798.17 216.7 799.81 216.7 800.82 216.11C801.83 215.52 801.84 214.58 800.83 213.99C799.82 213.4 798.18 213.4 797.17 213.99Z" fill="#1A1918"/>
<path d="M879.59 207.38L1057.3 104.81C1058.54 104.1 1060.06 104.1 1061.3 104.81L1087.03 119.62C1088.37 120.39 1088.37 122.32 1087.03 123.09L908.84 225.41C907.6 226.12 906.08 226.12 904.85 225.41L879.6 210.85C878.27 210.08 878.27 208.16 879.6 207.39L879.59 207.38Z" fill="#E5E5E5" stroke="#1E1D1C" stroke-width="2" stroke-linecap="round" stroke-linejoin="round"/>
<path d="M911.62 211.74C910.61 212.33 910.6 213.27 911.61 213.86C912.62 214.45 914.26 214.45 915.27 213.86C916.28 213.27 916.29 212.33 915.28 211.74C914.27 211.15 912.63 211.15 911.62 211.74Z" fill="#1A1918"/>
<path d="M905.03 215.55C904.02 216.14 904.01 217.08 905.02 217.67C906.03 218.26 907.67 218.26 908.68 217.67C909.69 217.08 909.7 216.14 908.69 215.55C907.68 214.96 906.04 214.96 905.03 215.55Z" fill="#1A1918"/>
<path d="M898.57 211.79C897.56 212.38 897.55 213.32 898.56 213.91C899.57 214.5 901.21 214.5 902.22 213.91C903.23 213.32 903.24 212.38 902.23 211.79C901.22 211.2 899.58 211.2 898.57 211.79Z" fill="#1A1918"/>
<path d="M905.14 207.98C904.13 208.57 904.12 209.51 905.13 210.1C906.14 210.69 907.78 210.69 908.79 210.1C909.8 209.51 909.81 208.57 908.8 207.98C907.79 207.39 906.15 207.39 905.14 207.98Z" fill="#1A1918"/>
<path d="M898.69 204.19C897.68 204.78 897.67 205.72 898.68 206.31C899.69 206.9 901.33 206.9 902.34 206.31C903.35 205.72 903.36 204.78 902.35 204.19C901.34 203.6 899.7 203.6 898.69 204.19Z" fill="#1A1918"/>
<path d="M892.08 208.02C891.07 208.61 891.06 209.55 892.07 210.14C893.08 210.73 894.72 210.73 895.73 210.14C896.74 209.55 896.75 208.61 895.74 208.02C894.73 207.43 893.09 207.43 892.08 208.02Z" fill="#1A1918"/>
<path d="M922.24 232.14L1099.95 129.57C1101.19 128.86 1102.71 128.86 1103.95 129.57L1129.68 144.38C1131.02 145.15 1131.02 147.08 1129.68 147.85L951.49 250.17C950.25 250.88 948.73 250.88 947.5 250.17L922.25 235.61C920.92 234.84 920.92 232.92 922.25 232.15L922.24 232.14Z" fill="#E5E5E5" stroke="#1E1D1C" stroke-width="2" stroke-linecap="round" stroke-linejoin="round"/>
<path d="M954.27 236.51C953.26 237.1 953.25 238.04 954.26 238.63C955.27 239.22 956.91 239.22 957.92 238.63C958.93 238.04 958.94 237.1 957.93 236.51C956.92 235.92 955.28 235.92 954.27 236.51Z" fill="#1A1918"/>
<path d="M947.68 240.31C946.67 240.9 946.66 241.84 947.67 242.43C948.68 243.02 950.32 243.02 951.33 242.43C952.34 241.84 952.35 240.9 951.34 240.31C950.33 239.72 948.69 239.72 947.68 240.31Z" fill="#1A1918"/>
<path d="M941.22 236.56C940.21 237.15 940.2 238.09 941.21 238.68C942.22 239.27 943.86 239.27 944.87 238.68C945.88 238.09 945.89 237.15 944.88 236.56C943.87 235.97 942.23 235.97 941.22 236.56Z" fill="#1A1918"/>
<path d="M947.8 232.74C946.79 233.33 946.78 234.27 947.79 234.86C948.8 235.45 950.44 235.45 951.45 234.86C952.46 234.27 952.47 233.33 951.46 232.74C950.45 232.15 948.81 232.15 947.8 232.74Z" fill="#1A1918"/>
<path d="M941.34 228.95C940.33 229.54 940.32 230.48 941.33 231.07C942.34 231.66 943.98 231.66 944.99 231.07C946 230.48 946.01 229.54 945 228.95C943.99 228.36 942.35 228.36 941.34 228.95Z" fill="#1A1918"/>
<path d="M934.74 232.79C933.73 233.38 933.72 234.32 934.73 234.91C935.74 235.5 937.38 235.5 938.39 234.91C939.4 234.32 939.41 233.38 938.4 232.79C937.39 232.2 935.75 232.2 934.74 232.79Z" fill="#1A1918"/>
<path d="M966.69 256.63L1144.4 154.06C1145.64 153.35 1147.16 153.35 1148.4 154.06L1174.13 168.87C1175.47 169.64 1175.47 171.57 1174.13 172.34L995.94 274.66C994.7 275.37 993.18 275.37 991.95 274.66L966.7 260.1C965.37 259.33 965.37 257.41 966.7 256.64L966.69 256.63Z" fill="#E5E5E5" stroke="#1E1D1C" stroke-width="2" stroke-linecap="round" stroke-linejoin="round"/>
<path d="M998.72 261C997.71 261.59 997.7 262.53 998.71 263.12C999.72 263.71 1001.36 263.71 1002.37 263.12C1003.38 262.53 1003.39 261.59 1002.38 261C1001.37 260.41 999.73 260.41 998.72 261Z" fill="#1A1918"/>
<path d="M992.13 264.8C991.12 265.39 991.11 266.33 992.12 266.92C993.13 267.51 994.77 267.51 995.78 266.92C996.79 266.33 996.8 265.39 995.79 264.8C994.78 264.21 993.14 264.21 992.13 264.8Z" fill="#1A1918"/>
<path d="M985.67 261.05C984.66 261.64 984.65 262.58 985.66 263.17C986.67 263.76 988.31 263.76 989.32 263.17C990.33 262.58 990.34 261.64 989.33 261.05C988.32 260.46 986.68 260.46 985.67 261.05Z" fill="#1A1918"/>
<path d="M992.25 257.23C991.24 257.82 991.23 258.76 992.24 259.35C993.25 259.94 994.89 259.94 995.9 259.35C996.91 258.76 996.92 257.82 995.91 257.23C994.9 256.64 993.26 256.64 992.25 257.23Z" fill="#1A1918"/>
<path d="M985.79 253.44C984.78 254.03 984.77 254.97 985.78 255.56C986.79 256.15 988.43 256.15 989.44 255.56C990.45 254.97 990.46 254.03 989.45 253.44C988.44 252.85 986.8 252.85 985.79 253.44Z" fill="#1A1918"/>
<path d="M979.18 257.28C978.17 257.87 978.16 258.81 979.17 259.4C980.18 259.99 981.82 259.99 982.83 259.4C983.84 258.81 983.85 257.87 982.84 257.28C981.83 256.69 980.19 256.69 979.18 257.28Z" fill="#1A1918"/>
<path d="M957.5 313.27L1135.21 210.7C1136.45 209.99 1137.97 209.99 1139.21 210.7L1164.94 225.51C1166.28 226.28 1166.28 228.21 1164.94 228.98L986.75 331.3C985.51 332.01 983.99 332.01 982.76 331.3L957.51 316.74C956.18 315.97 956.18 314.05 957.51 313.28L957.5 313.27Z" fill="white" stroke="#1E1D1C" stroke-width="2" stroke-linecap="round" stroke-linejoin="round"/>
<path d="M989.54 317.64C988.53 318.23 988.52 319.17 989.53 319.76C990.54 320.35 992.18 320.35 993.19 319.76C994.2 319.17 994.21 318.23 993.2 317.64C992.19 317.05 990.55 317.05 989.54 317.64Z" fill="#1A1918"/>
<path d="M982.95 321.44C981.94 322.03 981.93 322.97 982.94 323.56C983.95 324.15 985.59 324.15 986.6 323.56C987.61 322.97 987.62 322.03 986.61 321.44C985.6 320.85 983.96 320.85 982.95 321.44Z" fill="#1A1918"/>
<path d="M976.49 317.69C975.48 318.28 975.47 319.22 976.48 319.81C977.49 320.4 979.13 320.4 980.14 319.81C981.15 319.22 981.16 318.28 980.15 317.69C979.14 317.1 977.5 317.1 976.49 317.69Z" fill="#1A1918"/>
<path d="M983.06 313.87C982.05 314.46 982.04 315.4 983.05 315.99C984.06 316.58 985.7 316.58 986.71 315.99C987.72 315.4 987.73 314.46 986.72 313.87C985.71 313.28 984.07 313.28 983.06 313.87Z" fill="#1A1918"/>
<path d="M976.61 310.09C975.6 310.68 975.59 311.62 976.6 312.21C977.61 312.8 979.25 312.8 980.26 312.21C981.27 311.62 981.28 310.68 980.27 310.09C979.26 309.5 977.62 309.5 976.61 310.09Z" fill="#1A1918"/>
<path d="M970 313.92C968.99 314.51 968.98 315.45 969.99 316.04C971 316.63 972.64 316.63 973.65 316.04C974.66 315.45 974.67 314.51 973.66 313.92C972.65 313.33 971.01 313.33 970 313.92Z" fill="#1A1918"/>
<path d="M794.47 242.03L821.99 257.92L887.06 220.46" stroke="#1E1D1C" stroke-width="2" stroke-linecap="round" stroke-linejoin="round"/>
<path d="M838.96 267.49L866.49 283.38L931.56 245.92" stroke="#1E1D1C" stroke-width="2" stroke-linecap="round" stroke-linejoin="round"/>
<path d="M881.82 292.56L909.34 308.45L974.41 270.99" stroke="#1E1D1C" stroke-width="2" stroke-linecap="round" stroke-linejoin="round"/>
<path d="M970.82 125.45L967.08 127.62L970.84 129.79L968.56 131.12L964.79 128.95L961.06 131.12L958.76 129.79L962.49 127.62L958.73 125.45L961.02 124.12L964.78 126.29L968.52 124.12L970.82 125.45Z" fill="#1E1D1C"/>
<path d="M1065.42 119.24L1061.69 121.41L1065.45 123.58L1063.16 124.91L1059.4 122.74L1055.66 124.91L1053.36 123.58L1057.09 121.41L1053.33 119.24L1055.62 117.91L1059.38 120.08L1063.12 117.91L1065.42 119.24Z" fill="#1E1D1C"/>
<path d="M1108.16 142.95L1104.43 145.12L1108.19 147.29L1105.9 148.62L1102.14 146.45L1098.4 148.62L1096.1 147.29L1099.83 145.12L1096.07 142.95L1098.36 141.62L1102.12 143.79L1105.86 141.62L1108.16 142.95Z" fill="#1E1D1C"/>
<path d="M1153.46 168.04L1149.72 170.21L1153.49 172.39L1151.2 173.72L1147.43 171.55L1143.7 173.72L1141.4 172.39L1145.13 170.22L1141.37 168.04L1143.66 166.71L1147.42 168.89L1151.16 166.72L1153.46 168.04Z" fill="#1E1D1C"/>
<path d="M1144.12 225.02L1140.38 227.19L1144.14 229.36L1141.85 230.69L1138.09 228.52L1134.36 230.69L1132.06 229.36L1135.79 227.19L1132.03 225.02L1134.32 223.68L1138.08 225.86L1141.81 223.69L1144.12 225.02Z" fill="#1E1D1C"/>
<path d="M133.87 405.9H133.89C138.07 408.3 143.19 408.29 147.36 405.89L166.94 394.66C169.89 392.96 169.9 388.7 166.94 387C162.75 384.57 157.58 384.57 153.39 387L133.84 398.24C130.88 399.95 130.89 404.22 133.86 405.91L133.87 405.9Z" fill="#1E1D1C"/>
<path d="M730.34 749.45L758.7 732.99C761.54 731.35 765.04 731.36 767.86 733.02C770.01 734.28 770 737.39 767.84 738.64L739.46 755.09C736.63 756.72 733.15 756.71 730.32 755.07C728.16 753.82 728.17 750.7 730.32 749.45H730.34Z" fill="#1E1D1C"/>
<path d="M746.44 756.66L774.8 740.2C777.64 738.56 781.14 738.57 783.96 740.23C786.11 741.49 786.1 744.6 783.94 745.85L755.56 762.3C752.73 763.93 749.25 763.92 746.42 762.28C744.26 761.03 744.27 757.91 746.42 756.66H746.44Z" fill="#1E1D1C"/>
<path d="M1119.09 349.44L1148.17 366.13C1149.1 366.66 1150.24 366.66 1151.16 366.13L1223.08 324.66C1224.43 323.88 1224.41 321.94 1223.05 321.18L1193.56 304.75C1192.64 304.24 1191.52 304.25 1190.6 304.77L1119.08 345.97C1117.74 346.74 1117.74 348.67 1119.08 349.44H1119.09Z" fill="#1E1D1C" stroke="#1E1D1C" stroke-width="2" stroke-linecap="round" stroke-linejoin="round"/>
<path d="M1395.44 295.45L1424.52 312.14C1425.45 312.67 1426.59 312.67 1427.51 312.14L1499.43 270.67C1500.78 269.89 1500.76 267.95 1499.4 267.19L1469.91 250.76C1468.99 250.25 1467.87 250.26 1466.95 250.78L1395.43 291.98C1394.09 292.75 1394.09 294.68 1395.43 295.45H1395.44Z" fill="#1E1D1C" stroke="#1E1D1C" stroke-width="2" stroke-linecap="round" stroke-linejoin="round"/>
<path d="M1289.44 357.6L1318.52 374.29C1319.45 374.82 1320.59 374.82 1321.51 374.29L1393.43 332.82C1394.78 332.04 1394.76 330.1 1393.4 329.34L1363.91 312.91C1362.99 312.4 1361.87 312.41 1360.95 312.93L1289.43 354.13C1288.09 354.9 1288.09 356.83 1289.43 357.6H1289.44Z" fill="#E5E5E5" stroke="#E5E5E5" stroke-width="2" stroke-linecap="round" stroke-linejoin="round"/>
<path d="M808.84 107.58L837.92 124.27C838.85 124.8 839.99 124.8 840.91 124.27L912.83 82.8C914.18 82.02 914.16 80.08 912.8 79.32L883.31 62.89C882.39 62.38 881.27 62.39 880.35 62.91L808.83 104.11C807.49 104.88 807.49 106.81 808.83 107.58H808.84Z" fill="white" stroke="#1E1D1C" stroke-width="2" stroke-linecap="round" stroke-linejoin="round"/>
<path d="M701.34 170.23L730.42 186.92C731.35 187.45 732.49 187.45 733.41 186.92L805.33 145.45C806.68 144.67 806.66 142.73 805.3 141.97L775.81 125.54C774.89 125.03 773.77 125.04 772.85 125.56L701.33 166.76C699.99 167.53 699.99 169.46 701.33 170.23H701.34Z" fill="#E5E5E5" stroke="#E5E5E5" stroke-width="2" stroke-linecap="round" stroke-linejoin="round"/>
<path d="M1337.79 213.45L1321.39 247.77L1381.58 238.73L1398.1 203.7L1337.79 213.45Z" fill="#1E1D1C" stroke="#1E1D1C" stroke-width="2" stroke-linecap="round" stroke-linejoin="round"/>
<path d="M1205.63 315.86L1307.65 256.97" stroke="#1E1D1C" stroke-width="2" stroke-linecap="round" stroke-linejoin="round"/>
<path d="M1021.85 373.15L1063.78 397.52L1117.42 366.55" stroke="#1E1D1C" stroke-width="2" stroke-linecap="round" stroke-linejoin="round"/>
<path d="M1298.9 255.2L1311.02 262.16L1314.58 252.96L1298.9 255.2Z" fill="#1E1D1C"/>
<path d="M1109.59 364.18L1121.7 371.15L1125.26 361.95L1109.59 364.18Z" fill="#1E1D1C"/>
<path d="M925.21 63.5899L913.09 56.6199L909.53 65.8199L925.21 63.5899Z" fill="#1E1D1C"/>
<path d="M1420.19 254.51L1424.96 264.84L1407.18 262.19L1420.19 254.51Z" fill="#1A1918"/>
<path d="M1416.92 259.67L994.7 16.21L917.37 61.38" stroke="#1E1D1C" stroke-width="2" stroke-linecap="round" stroke-linejoin="round"/>
<path d="M829.89 367.41L841.48 360.72L966.09 432.23L953.56 439.46" stroke="#1E1D1C" stroke-width="2" stroke-linecap="round" stroke-linejoin="round"/>
<path d="M224.71 546.56L129.39 602.44" stroke="#1E1D1C" stroke-width="2" stroke-linecap="round" stroke-linejoin="round"/>
</svg>
