<svg width="365" height="347" viewBox="0 0 365 347" fill="none" xmlns="http://www.w3.org/2000/svg">
<path d="M109.18 29.35L83.7 0L58.29 58.73L70.94 51.42V185L96.52 170.31V36.65L109.18 29.35Z" fill="url(#paint0_linear_41_434)"/>
<path d="M156.64 31.27L138.38 10.24L120.16 52.33L129.23 47.1V142.84L147.57 132.31V36.51L156.64 31.27Z" fill="url(#paint1_linear_41_434)"/>
<path d="M47.2201 94.45L28.8601 73.3L10.55 115.62L19.67 110.35V208.6L38.1 198.01V99.71L47.2201 94.45Z" fill="url(#paint2_linear_41_434)"/>
<path d="M251.46 53.93L244.8 50.12C243.04 49.05 240.74 48.87 238.7 50.05L217.24 62.44C213.53 64.58 211.24 68.55 211.24 72.83V97.65C211.24 100.04 212.58 101.96 214.43 102.94L221.19 106.81L224.02 102.24L222.6 101.48L241.72 90.41C245.43 88.26 247.71 84.31 247.71 80.02V58.19L251.47 53.91L251.46 53.93Z" fill="#E0E0E0"/>
<path d="M221.18 107.57C221.05 107.57 220.93 107.54 220.81 107.47L214.05 103.61C214.05 103.61 213.99 103.57 213.96 103.55C211.78 102.34 210.48 100.15 210.48 97.66V72.83C210.48 68.29 212.92 64.06 216.86 61.79L238.32 49.4C240.48 48.15 243.05 48.18 245.19 49.48L251.83 53.29C252.03 53.4 252.16 53.6 252.2 53.82C252.24 54.04 252.17 54.27 252.02 54.44L248.45 58.51V80.05C248.45 84.58 246.01 88.81 242.09 91.09L224.13 101.48L224.36 101.6C224.54 101.7 224.68 101.87 224.73 102.07C224.78 102.27 224.75 102.48 224.64 102.66L221.81 107.23C221.67 107.46 221.42 107.59 221.17 107.59L221.18 107.57ZM214.9 102.36L220.93 105.81L222.96 102.53L222.25 102.15C222.01 102.02 221.86 101.77 221.85 101.5C221.84 101.23 221.99 100.97 222.22 100.84L241.34 89.77C244.8 87.77 246.95 84.03 246.95 80.03V58.2C246.95 58.02 247.02 57.84 247.14 57.7L250.3 54.11L244.44 50.75C242.76 49.74 240.77 49.71 239.08 50.68L217.62 63.07C214.15 65.07 212 68.81 212 72.81V97.64C212 99.61 213.04 101.34 214.79 102.27C214.83 102.29 214.87 102.32 214.91 102.35L214.9 102.36Z" fill="#1E1D1C"/>
<path d="M224.08 66.37L245.54 53.98C249.54 51.67 254.54 54.56 254.54 59.18V83.97C254.54 88.25 252.26 92.21 248.55 94.36L227.08 106.79C223.08 109.11 218.07 106.22 218.07 101.6V76.78C218.07 72.49 220.36 68.53 224.07 66.39L224.08 66.37Z" fill="#1E1D1C"/>
<path d="M224.08 108.35C222.92 108.35 221.76 108.05 220.71 107.44C218.59 106.22 217.33 104.03 217.33 101.59V76.76C217.33 72.22 219.77 67.99 223.71 65.72L245.17 53.33C247.28 52.11 249.81 52.11 251.92 53.33C254.03 54.55 255.3 56.74 255.3 59.17V83.96C255.3 88.49 252.86 92.72 248.94 95L227.47 107.43C226.41 108.04 225.25 108.35 224.09 108.35H224.08ZM248.54 53.92C247.64 53.92 246.74 54.16 245.92 54.63L224.46 67.02C220.99 69.02 218.84 72.76 218.84 76.76V101.59C218.84 103.49 219.82 105.19 221.47 106.14C223.12 107.09 225.08 107.09 226.72 106.14L248.19 93.71C251.65 91.71 253.8 87.97 253.8 83.97V59.18C253.8 57.28 252.82 55.58 251.18 54.63C250.36 54.16 249.46 53.92 248.56 53.92H248.54Z" fill="#1E1D1C"/>
<path d="M262.89 60.52L256.23 56.71C254.47 55.64 252.17 55.46 250.13 56.64L228.67 69.03C224.96 71.17 222.67 75.14 222.67 79.42V104.24C222.67 106.63 224.01 108.55 225.86 109.53L232.62 113.4L235.45 108.83L234.03 108.07L253.15 97C256.86 94.85 259.14 90.9 259.14 86.61V64.78L262.9 60.5L262.89 60.52Z" fill="#E0E0E0"/>
<path d="M232.61 114.16C232.48 114.16 232.36 114.13 232.24 114.06L225.48 110.19C225.48 110.19 225.42 110.15 225.4 110.13C223.22 108.92 221.92 106.73 221.92 104.24V79.42C221.92 74.88 224.36 70.65 228.3 68.38L249.76 55.99C251.92 54.74 254.49 54.77 256.63 56.07L263.27 59.87C263.47 59.98 263.6 60.18 263.64 60.4C263.68 60.62 263.61 60.85 263.46 61.02L259.89 65.09V86.63C259.89 91.16 257.45 95.39 253.53 97.67L235.58 108.06L235.81 108.18C235.99 108.28 236.13 108.45 236.18 108.65C236.23 108.85 236.2 109.06 236.09 109.24L233.26 113.81C233.12 114.04 232.87 114.17 232.62 114.17L232.61 114.16ZM226.32 108.95L232.35 112.4L234.38 109.12L233.67 108.74C233.43 108.61 233.28 108.36 233.27 108.09C233.26 107.82 233.41 107.56 233.64 107.43L252.76 96.36C256.22 94.36 258.37 90.62 258.37 86.62V64.79C258.37 64.61 258.44 64.43 258.56 64.29L261.71 60.7L255.85 57.34C254.17 56.33 252.17 56.3 250.49 57.27L229.03 69.66C225.56 71.66 223.41 75.4 223.41 79.4V104.22C223.41 106.19 224.45 107.92 226.2 108.85C226.24 108.87 226.28 108.9 226.32 108.93V108.95Z" fill="#1E1D1C"/>
<path d="M235.5 72.96L256.96 60.57C260.96 58.26 265.96 61.15 265.96 65.77V90.56C265.96 94.84 263.68 98.8 259.97 100.95L238.5 113.38C234.5 115.7 229.49 112.81 229.49 108.19V83.37C229.49 79.08 231.78 75.12 235.49 72.98L235.5 72.96Z" fill="white"/>
<path d="M235.5 114.94C234.34 114.94 233.18 114.64 232.13 114.03C230.01 112.81 228.75 110.62 228.75 108.18V83.36C228.75 78.82 231.19 74.59 235.13 72.32L256.59 59.93C258.7 58.71 261.23 58.71 263.34 59.93C265.45 61.15 266.72 63.34 266.72 65.78V90.57C266.72 95.1 264.28 99.33 260.36 101.61L238.89 114.04C237.83 114.65 236.67 114.96 235.51 114.96L235.5 114.94ZM259.96 60.51C259.06 60.51 258.16 60.75 257.34 61.22L235.88 73.61C232.41 75.61 230.26 79.35 230.26 83.35V108.17C230.26 110.07 231.24 111.77 232.89 112.72C234.54 113.67 236.5 113.67 238.14 112.72L259.61 100.29C263.07 98.29 265.22 94.55 265.22 90.55V65.76C265.22 63.86 264.24 62.16 262.6 61.21C261.78 60.74 260.88 60.5 259.98 60.5L259.96 60.51Z" fill="#1E1D1C"/>
<path d="M356.35 171.88L339.73 162.28C336.02 160.14 331.44 160.14 327.73 162.28L311.11 171.88H303.31V179.88C303.32 181.89 304.32 183.89 306.3 185.04L327.78 197.47C331.49 199.62 336.07 199.62 339.79 197.47L361.24 185.09C363.24 183.94 364.24 181.91 364.24 179.89V171.87H356.35V171.88Z" fill="#1E1D1C"/>
<path d="M333.79 199.83C331.58 199.83 329.37 199.26 327.4 198.12L305.92 185.69C303.85 184.49 302.59 182.35 302.56 179.96C302.56 179.94 302.56 179.91 302.56 179.89V171.89C302.56 171.48 302.9 171.14 303.31 171.14H310.91L327.36 161.64C331.29 159.37 336.18 159.37 340.11 161.64L356.56 171.14H364.24C364.65 171.14 364.99 171.48 364.99 171.89V179.91C364.99 182.35 363.73 184.54 361.61 185.76L340.16 198.14C338.19 199.28 335.99 199.84 333.79 199.84V199.83ZM304.06 179.81C304.06 179.81 304.06 179.85 304.06 179.87C304.06 181.75 305.05 183.44 306.68 184.38L328.16 196.81C331.63 198.82 335.95 198.82 339.42 196.81L360.87 184.43C362.51 183.48 363.49 181.78 363.49 179.88V172.61H356.35C356.22 172.61 356.09 172.58 355.97 172.51L339.35 162.91C335.88 160.91 331.57 160.91 328.1 162.91L311.48 172.51C311.37 172.58 311.24 172.61 311.1 172.61H304.05V179.79L304.06 179.81Z" fill="#1E1D1C"/>
<path d="M306.3 177.04L327.78 189.47C331.49 191.62 336.07 191.62 339.79 189.47L361.24 177.09C365.24 174.78 365.24 169.01 361.24 166.7L339.73 154.28C336.02 152.14 331.44 152.14 327.73 154.28L306.31 166.65C302.31 168.96 302.31 174.73 306.31 177.04H306.3Z" fill="white"/>
<path d="M333.79 191.83C331.58 191.83 329.37 191.26 327.4 190.12L305.92 177.69C303.81 176.47 302.55 174.28 302.55 171.84C302.55 169.4 303.81 167.22 305.93 166L327.35 153.63C331.28 151.36 336.17 151.36 340.1 153.63L361.61 166.05C363.72 167.27 364.99 169.46 364.99 171.9C364.99 174.34 363.73 176.53 361.61 177.75L340.16 190.13C338.19 191.27 335.99 191.83 333.79 191.83ZM306.68 176.39L328.16 188.82C331.63 190.83 335.95 190.83 339.42 188.82L360.87 176.44C362.51 175.49 363.49 173.79 363.49 171.89C363.49 169.99 362.51 168.29 360.87 167.34L339.36 154.92C335.89 152.92 331.58 152.92 328.11 154.92L306.69 167.29C305.05 168.24 304.07 169.94 304.07 171.83C304.07 173.73 305.05 175.43 306.69 176.38L306.68 176.39Z" fill="#1E1D1C"/>
<path d="M356.35 157.88L339.73 148.28C336.02 146.14 331.44 146.14 327.73 148.28L311.11 157.88H303.31V165.88C303.32 167.89 304.32 169.89 306.3 171.04L327.78 183.47C331.49 185.62 336.07 185.62 339.79 183.47L361.24 171.09C363.24 169.94 364.24 167.91 364.24 165.89V157.87H356.35V157.88Z" fill="#1E1D1C"/>
<path d="M333.79 185.83C331.58 185.83 329.37 185.26 327.4 184.12L305.92 171.69C303.85 170.49 302.59 168.35 302.56 165.96C302.56 165.94 302.56 165.91 302.56 165.89V157.89C302.56 157.48 302.9 157.14 303.31 157.14H310.91L327.36 147.64C331.29 145.37 336.18 145.37 340.11 147.64L356.56 157.14H364.24C364.65 157.14 364.99 157.48 364.99 157.89V165.91C364.99 168.35 363.73 170.54 361.61 171.76L340.16 184.14C338.19 185.28 335.99 185.84 333.79 185.84V185.83ZM304.06 165.81C304.06 165.81 304.06 165.85 304.06 165.87C304.06 167.75 305.05 169.44 306.68 170.38L328.16 182.81C331.63 184.82 335.95 184.82 339.42 182.81L360.87 170.43C362.51 169.48 363.49 167.78 363.49 165.88V158.61H356.35C356.22 158.61 356.09 158.58 355.97 158.51L339.35 148.91C335.88 146.91 331.57 146.91 328.1 148.91L311.48 158.51C311.37 158.58 311.24 158.61 311.1 158.61H304.05V165.79L304.06 165.81Z" fill="#1E1D1C"/>
<path d="M165.17 208.62V292.93L238.34 250.69V166.37L165.17 208.62Z" fill="#E0E0E0"/>
<path d="M165.17 293.68C165.04 293.68 164.91 293.65 164.79 293.58C164.56 293.45 164.41 293.2 164.41 292.93V208.61C164.41 208.34 164.55 208.09 164.79 207.96L237.96 165.72C238.19 165.59 238.48 165.59 238.71 165.72C238.94 165.85 239.09 166.1 239.09 166.37V250.69C239.09 250.96 238.95 251.21 238.71 251.34L165.54 293.58C165.42 293.65 165.29 293.68 165.16 293.68H165.17ZM165.92 209.05V291.64L237.59 250.26V167.68L165.92 209.06V209.05Z" fill="#1E1D1C"/>
<path d="M165.17 208.62V292.93L92 250.69V166.37L165.17 208.62Z" fill="#1E1D1C"/>
<path d="M165.17 293.68C165.04 293.68 164.91 293.65 164.79 293.58L91.62 251.34C91.39 251.21 91.24 250.96 91.24 250.69V166.37C91.24 166.1 91.38 165.85 91.62 165.72C91.85 165.59 92.14 165.59 92.37 165.72L165.54 207.96C165.77 208.09 165.92 208.34 165.92 208.61V292.93C165.92 293.2 165.78 293.45 165.54 293.58C165.42 293.65 165.29 293.68 165.16 293.68H165.17ZM92.75 250.25L164.42 291.63V209.04L92.75 167.66V250.24V250.25Z" fill="#1E1D1C"/>
<path d="M0.98999 219.09L73.92 261.31L147.09 219.06L74.04 176.92L0.98999 219.09Z" fill="white"/>
<path d="M73.92 262.06C73.79 262.06 73.66 262.03 73.54 261.96L0.62 219.74C0.39 219.61 0.25 219.36 0.25 219.09C0.25 218.82 0.39 218.57 0.63 218.44L73.67 176.27C73.9 176.14 74.19 176.14 74.42 176.27L147.47 218.41C147.7 218.54 147.85 218.79 147.85 219.06C147.85 219.33 147.71 219.58 147.47 219.71L74.3 261.95C74.18 262.02 74.05 262.05 73.92 262.05V262.06ZM2.49 219.1L73.92 260.45L145.59 219.07L74.04 177.79L2.49 219.1Z" fill="#1E1D1C"/>
<path d="M92.25 166.4L165.17 208.62L238.34 166.37L165.29 124.23L92.25 166.4Z" fill="white"/>
<path d="M165.17 209.37C165.04 209.37 164.91 209.34 164.79 209.27L91.87 167.06C91.64 166.93 91.5 166.68 91.5 166.41C91.5 166.14 91.64 165.89 91.88 165.76L164.93 123.59C165.16 123.46 165.45 123.46 165.68 123.59L238.72 165.73C238.95 165.86 239.1 166.11 239.1 166.38C239.1 166.65 238.96 166.9 238.72 167.03L165.55 209.27C165.43 209.34 165.3 209.37 165.17 209.37ZM93.75 166.41L165.18 207.76L236.85 166.38L165.31 125.1L93.76 166.41H93.75Z" fill="#1E1D1C"/>
<path d="M73.9199 261.31V345.62L147.09 303.38V219.06L73.9199 261.31Z" fill="#E0E0E0"/>
<path d="M73.9199 346.38C73.7899 346.38 73.6599 346.35 73.5399 346.28C73.3099 346.15 73.1599 345.9 73.1599 345.63V261.31C73.1599 261.04 73.2999 260.79 73.5399 260.66L146.71 218.42C146.94 218.29 147.23 218.29 147.46 218.42C147.69 218.55 147.84 218.8 147.84 219.07V303.39C147.84 303.66 147.7 303.91 147.46 304.04L74.2899 346.28C74.1699 346.35 74.0399 346.38 73.9099 346.38H73.9199ZM74.6699 261.75V344.33L146.34 302.95V220.37L74.6699 261.75Z" fill="#1E1D1C"/>
<path d="M73.92 261.31V345.62L0.75 303.38V219.06L73.92 261.31Z" fill="#1E1D1C"/>
<path d="M73.92 346.38C73.79 346.38 73.66 346.35 73.54 346.28L0.38 304.03C0.15 303.9 0 303.65 0 303.38V219.06C0 218.79 0.14 218.54 0.38 218.41C0.61 218.28 0.9 218.28 1.13 218.41L74.3 260.65C74.53 260.78 74.68 261.03 74.68 261.3V345.62C74.68 345.89 74.54 346.14 74.3 346.27C74.18 346.34 74.05 346.37 73.92 346.37V346.38ZM1.5 302.95L73.17 344.33V261.75L1.5 220.36V302.94V302.95Z" fill="#1E1D1C"/>
<path d="M48.3201 107.46L121.24 149.67L194.41 107.43L121.36 65.29L48.3201 107.46Z" fill="white"/>
<path d="M121.24 150.42C121.11 150.42 120.98 150.39 120.86 150.32L47.9401 108.11C47.7101 107.98 47.5701 107.73 47.5701 107.46C47.5701 107.19 47.7101 106.94 47.9501 106.81L120.99 64.64C121.22 64.51 121.51 64.51 121.74 64.64L194.79 106.78C195.02 106.91 195.17 107.16 195.17 107.43C195.17 107.7 195.03 107.95 194.79 108.08L121.62 150.32C121.5 150.39 121.37 150.42 121.24 150.42ZM49.8101 107.46L121.24 148.81L192.91 107.43L121.36 66.15L49.8101 107.46Z" fill="#1E1D1C"/>
<path d="M121.24 149.67V233.99L194.41 191.75V107.43L121.24 149.67Z" fill="#E0E0E0"/>
<path d="M121.24 234.74C121.11 234.74 120.98 234.71 120.86 234.64C120.63 234.51 120.48 234.26 120.48 233.99V149.67C120.48 149.4 120.62 149.15 120.86 149.02L194.03 106.78C194.26 106.65 194.55 106.65 194.78 106.78C195.01 106.91 195.16 107.16 195.16 107.43V191.75C195.16 192.02 195.02 192.27 194.78 192.4L121.61 234.64C121.49 234.71 121.36 234.74 121.23 234.74H121.24ZM121.99 150.11V232.7L193.66 191.32V108.73L121.99 150.11Z" fill="#1E1D1C"/>
<path d="M121.24 149.67V233.99L48.0701 191.75V107.43L121.24 149.67Z" fill="#1E1D1C"/>
<path d="M121.24 234.74C121.11 234.74 120.98 234.71 120.86 234.64L47.6901 192.4C47.4601 192.27 47.3101 192.02 47.3101 191.75V107.43C47.3101 107.16 47.4501 106.91 47.6901 106.78C47.9201 106.65 48.2101 106.65 48.4401 106.78L121.61 149.02C121.84 149.15 121.99 149.4 121.99 149.67V233.99C121.99 234.26 121.85 234.51 121.61 234.64C121.49 234.71 121.36 234.74 121.23 234.74H121.24ZM48.8201 191.31L120.49 232.69V150.1L48.8201 108.73V191.31Z" fill="#1E1D1C"/>
<path d="M154.74 98.57H151.39C149.79 96.66 147.63 94.87 144.88 93.28C131.8 85.73 110.67 85.73 97.67 93.28C94.94 94.86 92.8 96.66 91.22 98.57H87.97V106.95C88 111.9 91.29 116.85 97.82 120.62C110.9 128.17 132.03 128.17 145.02 120.62C151.52 116.84 154.75 111.9 154.72 106.95V98.57H154.74Z" fill="white"/>
<path d="M121.47 127.01C112.79 127.01 104.09 125.1 97.46 121.27C90.89 117.48 87.26 112.39 87.23 106.95V98.56C87.23 98.15 87.57 97.81 87.98 97.81H90.88C92.53 95.88 94.69 94.14 97.3 92.62C110.48 84.96 131.99 84.96 145.26 92.62C147.89 94.14 150.07 95.88 151.74 97.81H154.74C155.15 97.81 155.49 98.15 155.49 98.56V106.94C155.52 112.38 151.94 117.47 145.41 121.26C138.82 125.09 130.15 127 121.47 127V127.01ZM88.73 99.31V106.94C88.76 111.82 92.12 116.45 98.21 119.96C111.06 127.38 131.89 127.38 144.66 119.96C150.7 116.45 154.02 111.83 153.99 106.94V99.3H151.4C151.18 99.3 150.97 99.2 150.82 99.03C149.23 97.13 147.11 95.41 144.51 93.91C131.66 86.49 110.82 86.49 98.05 93.91C95.47 95.41 93.37 97.13 91.8 99.03C91.66 99.2 91.45 99.3 91.22 99.3H88.72L88.73 99.31Z" fill="#1E1D1C"/>
<path d="M144.89 84.9C157.97 92.45 158.03 104.69 145.04 112.24C132.05 119.79 110.92 119.79 97.8401 112.24C84.7601 104.69 84.6901 92.45 97.6801 84.9C110.67 77.35 131.81 77.35 144.89 84.9Z" fill="#1E1D1C"/>
<path d="M121.47 118.63C112.79 118.63 104.09 116.72 97.46 112.89C90.87 109.09 87.24 103.98 87.23 98.52C87.23 93.1 90.8 88.03 97.3 84.25C110.48 76.59 131.99 76.59 145.26 84.25C151.85 88.05 155.48 93.15 155.49 98.61C155.49 104.04 151.92 109.11 145.41 112.89C138.82 116.72 130.15 118.63 121.47 118.63ZM121.25 79.98C112.84 79.98 104.44 81.83 98.06 85.54C92.04 89.04 88.73 93.64 88.74 98.51C88.74 103.41 92.11 108.06 98.22 111.58C111.07 119 131.9 119 144.67 111.58C150.69 108.08 154.01 103.47 154 98.6C154 93.7 150.63 89.06 144.52 85.53C138.1 81.82 129.67 79.97 121.26 79.97L121.25 79.98Z" fill="#1E1D1C"/>
<path d="M108.27 86.73C108.21 86.76 108.18 86.82 108.2 86.88L116.17 103.85C116.26 104.05 116.69 104.11 116.94 103.97L124.84 99.41C125 99.32 125.27 99.33 125.41 99.43L136.38 107.65C136.49 107.73 136.68 107.72 136.78 107.66C136.84 107.63 136.87 107.57 136.84 107.52L129.06 90.66C128.97 90.46 128.54 90.39 128.29 90.54L120.34 95.13C120.18 95.22 119.91 95.21 119.77 95.11L108.66 86.74C108.55 86.66 108.37 86.67 108.26 86.73H108.27Z" fill="white"/>
<path d="M226.72 243.48C226.59 243.48 226.46 243.45 226.34 243.38L205.36 231.22C205 231.01 204.88 230.55 205.09 230.2C205.3 229.84 205.76 229.72 206.11 229.93L226.71 241.87L310.69 193.04C311.05 192.83 311.51 192.96 311.72 193.31C311.93 193.67 311.81 194.13 311.45 194.34L227.09 243.39C226.97 243.46 226.84 243.49 226.71 243.49L226.72 243.48Z" fill="#1E1D1C"/>
<path d="M179.52 180.97C179.39 180.97 179.27 180.94 179.15 180.87L161.54 170.89C161.18 170.69 161.05 170.23 161.26 169.87C161.46 169.51 161.92 169.38 162.28 169.59L179.51 179.36L275.59 122.76L254.44 110.77C254.08 110.57 253.95 110.11 254.16 109.75C254.36 109.39 254.82 109.26 255.18 109.47L277.45 122.1C277.68 122.23 277.83 122.48 277.83 122.75C277.83 123.02 277.69 123.27 277.46 123.4L179.89 180.88C179.77 180.95 179.64 180.98 179.51 180.98L179.52 180.97Z" fill="#1E1D1C"/>
<path d="M200.28 336.96C200.15 336.96 200.02 336.93 199.9 336.86L112.34 286.1C111.98 285.89 111.86 285.43 112.07 285.08C112.28 284.72 112.74 284.6 113.09 284.81L200.27 335.35L219.32 324.35C219.68 324.14 220.14 324.27 220.34 324.62C220.55 324.98 220.42 325.44 220.07 325.64L200.64 336.86C200.52 336.93 200.39 336.96 200.26 336.96H200.28Z" fill="#1E1D1C"/>
<path d="M306.3 163.04L327.78 175.47C331.49 177.62 336.07 177.62 339.79 175.47L361.24 163.09C365.24 160.78 365.24 155.01 361.24 152.7L339.73 140.28C336.02 138.14 331.44 138.14 327.73 140.28L306.31 152.65C302.31 154.96 302.31 160.73 306.31 163.04H306.3Z" fill="white"/>
<path d="M333.79 177.83C331.58 177.83 329.37 177.26 327.4 176.12L305.92 163.69C303.81 162.47 302.55 160.28 302.55 157.84C302.55 155.4 303.81 153.22 305.93 152L327.35 139.63C331.28 137.36 336.17 137.36 340.1 139.63L361.61 152.05C363.72 153.27 364.99 155.46 364.99 157.9C364.99 160.34 363.73 162.53 361.61 163.75L340.16 176.13C338.19 177.27 335.99 177.83 333.79 177.83ZM306.68 162.39L328.16 174.82C331.63 176.83 335.95 176.83 339.42 174.82L360.87 162.44C362.51 161.49 363.49 159.79 363.49 157.89C363.49 155.99 362.51 154.29 360.87 153.34L339.36 140.92C335.89 138.92 331.58 138.92 328.11 140.92L306.69 153.29C305.05 154.24 304.07 155.94 304.07 157.83C304.07 159.73 305.05 161.43 306.69 162.38L306.68 162.39Z" fill="#1E1D1C"/>
<path d="M330.63 164.77L334.18 166.84L351.33 156.93L347.78 154.87L330.63 164.77Z" fill="white"/>
<path d="M356.35 156.93L334.15 169.75L312.1 156.93L334.3 144.11L356.35 156.93ZM334.18 166.84L351.33 156.94L347.78 154.87L330.63 164.77L334.18 166.84Z" fill="#1E1D1C"/>
<path d="M343.75 269.46L310.5 250.55C308.03 249.15 305 249.16 302.54 250.58L214.26 301.55L206.45 303.49V308.49C206.49 309.8 207.15 311.09 208.44 311.84L243.33 332.02C245.81 333.45 248.86 333.45 251.34 332.02L345.64 277.48C346.92 276.74 347.58 275.46 347.63 274.16V268.51L343.74 269.47L343.75 269.46Z" fill="white"/>
<path d="M247.34 333.83C245.83 333.83 244.31 333.44 242.96 332.66L208.08 312.48C206.68 311.67 205.8 310.23 205.72 308.61C205.72 308.57 205.71 308.53 205.71 308.48V303.48C205.71 303.14 205.95 302.83 206.28 302.75L213.99 300.84L302.18 249.92C304.86 248.37 308.19 248.36 310.88 249.89L343.87 268.65L347.47 267.76C347.69 267.7 347.93 267.76 348.11 267.9C348.29 268.04 348.4 268.26 348.4 268.49V274.14C348.4 274.19 348.4 274.25 348.38 274.3C348.28 275.89 347.41 277.31 346.02 278.11L251.72 332.65C250.37 333.43 248.85 333.82 247.34 333.82V333.83ZM207.2 308.38C207.2 308.38 207.2 308.43 207.2 308.46C207.23 309.61 207.82 310.61 208.82 311.18L243.7 331.36C245.94 332.65 248.72 332.65 250.96 331.36L345.26 276.82C346.25 276.25 346.83 275.27 346.87 274.13C346.87 274.1 346.87 274.07 346.87 274.04V269.47L343.91 270.2C343.72 270.25 343.53 270.22 343.36 270.12L310.11 251.21C307.88 249.94 305.12 249.95 302.9 251.23L214.62 302.2C214.56 302.24 214.49 302.26 214.43 302.28L207.19 304.07V308.38H207.2Z" fill="#1E1D1C"/>
<path d="M208.18 306.67L243.45 327.07C245.86 328.46 248.82 328.46 251.23 327.07L345.64 272.46C348.31 270.91 348.3 267.05 345.61 265.52L310.49 245.55C308.02 244.15 304.99 244.16 302.53 245.58L208.17 300.06C205.62 301.53 205.62 305.21 208.17 306.68L208.18 306.67Z" fill="white"/>
<path d="M218.91 293.87L208.46 299.91C205.79 301.45 205.79 305.3 208.46 306.84L243.35 327.02C245.83 328.45 248.88 328.45 251.36 327.02L263.83 319.81L218.92 293.88L218.91 293.87Z" fill="#E0E0E0"/>
<path d="M247.34 328.83C245.83 328.83 244.31 328.44 242.96 327.66L208.08 307.48C206.59 306.62 205.71 305.08 205.71 303.37C205.71 301.65 206.6 300.12 208.09 299.26L302.18 244.94C304.86 243.39 308.19 243.38 310.88 244.91L346 264.88C347.5 265.73 348.4 267.27 348.4 268.99C348.4 270.71 347.52 272.26 346.03 273.12L251.73 327.66C250.38 328.44 248.86 328.83 247.35 328.83H247.34ZM306.54 245.26C305.29 245.26 304.03 245.58 302.92 246.23L208.83 300.55C207.81 301.14 207.21 302.19 207.21 303.36C207.21 304.53 207.82 305.59 208.83 306.17L243.71 326.35C245.95 327.64 248.73 327.64 250.97 326.35L345.27 271.81C346.29 271.22 346.9 270.16 346.89 268.99C346.89 267.81 346.27 266.76 345.25 266.18L310.13 246.21C309.02 245.58 307.78 245.27 306.55 245.27L306.54 245.26Z" fill="#1E1D1C"/>
<path d="M220.94 303.43L220.25 304.72L220.98 304.88L221.49 303.91L224.8 305.83L223.62 306.51L224.18 306.84L227.05 305.18L226.49 304.85L225.47 305.44L221.48 303.12L220.94 303.43Z" fill="black"/>
<path d="M230.95 309.26C230.65 309.43 230.44 309.62 230.32 309.81C230.21 310 230.16 310.2 230.16 310.4L230.9 310.44C230.9 310.29 230.93 310.14 231 310C231.08 309.86 231.21 309.73 231.4 309.62C231.54 309.54 231.68 309.48 231.82 309.45C231.96 309.42 232.11 309.41 232.24 309.42C232.38 309.42 232.52 309.45 232.65 309.49C232.78 309.53 232.91 309.58 233.01 309.64C233.13 309.71 233.23 309.78 233.3 309.85C233.38 309.92 233.45 310.01 233.49 310.12C233.54 310.23 233.57 310.35 233.58 310.5C233.6 310.65 233.6 310.84 233.6 311.06V312.42L234.12 312.73L237.13 310.99L236.56 310.66L234.34 311.94L234.37 311C234.37 310.78 234.37 310.58 234.36 310.41C234.34 310.23 234.31 310.08 234.26 309.94C234.2 309.8 234.13 309.67 234.03 309.56C233.93 309.45 233.79 309.34 233.62 309.24C233.41 309.12 233.19 309.03 232.96 308.97C232.73 308.92 232.5 308.89 232.26 308.89C232.03 308.89 231.8 308.93 231.57 308.99C231.35 309.05 231.13 309.14 230.93 309.26H230.95Z" fill="black"/>
<path d="M240.83 315.21C240.75 315.26 240.67 315.31 240.59 315.37C240.51 315.42 240.43 315.48 240.35 315.54C240.28 315.6 240.21 315.66 240.14 315.73C240.08 315.79 240.01 315.85 239.96 315.92L240.49 316.23C240.61 316.08 240.74 315.96 240.88 315.85C241.01 315.74 241.16 315.64 241.31 315.55C241.6 315.38 241.87 315.29 242.13 315.27C242.39 315.25 242.64 315.31 242.88 315.45C243 315.52 243.09 315.6 243.15 315.68C243.21 315.76 243.23 315.84 243.22 315.93C243.21 316.02 243.16 316.1 243.08 316.19C243 316.28 242.89 316.36 242.76 316.44L242.23 316.75L242.73 317.04L243.25 316.74C243.42 316.64 243.59 316.56 243.76 316.5C243.93 316.44 244.1 316.39 244.26 316.37C244.43 316.35 244.59 316.35 244.73 316.37C244.88 316.39 245.02 316.44 245.14 316.51C245.28 316.59 245.38 316.67 245.44 316.76C245.5 316.85 245.52 316.95 245.49 317.05C245.46 317.15 245.39 317.26 245.27 317.38C245.15 317.5 244.97 317.62 244.74 317.75C244.57 317.85 244.41 317.94 244.24 318.02C244.06 318.1 243.89 318.18 243.72 318.25L244.26 318.57C244.41 318.51 244.55 318.44 244.71 318.36C244.87 318.29 245.04 318.2 245.22 318.09C245.55 317.9 245.8 317.71 245.97 317.53C246.14 317.34 246.24 317.16 246.27 317C246.3 316.83 246.27 316.67 246.18 316.52C246.08 316.37 245.94 316.24 245.74 316.12C245.6 316.04 245.43 315.98 245.26 315.94C245.08 315.91 244.91 315.89 244.73 315.89C244.55 315.89 244.38 315.91 244.21 315.95C244.04 315.99 243.89 316.03 243.76 316.09C243.88 315.9 243.93 315.71 243.89 315.53C243.85 315.35 243.69 315.19 243.43 315.03C243.26 314.93 243.07 314.85 242.87 314.81C242.67 314.77 242.46 314.75 242.24 314.77C242.02 314.79 241.79 314.83 241.56 314.91C241.32 314.98 241.08 315.09 240.84 315.23L240.83 315.21Z" fill="black"/>
<path d="M256.82 307.46C256.01 307.93 256.01 308.68 256.82 309.15C257.63 309.62 258.93 309.62 259.73 309.15L322.85 272.71C323.66 272.24 323.66 271.49 322.85 271.02C322.04 270.55 320.75 270.55 319.94 271.02L256.82 307.46Z" fill="#1A1918"/>
<path d="M246.66 301.45C245.85 301.92 245.85 302.67 246.66 303.14C247.47 303.61 248.77 303.61 249.57 303.14L309.28 268.76C310.09 268.29 310.09 267.54 309.28 267.07C308.47 266.6 307.18 266.6 306.37 267.07L246.66 301.45Z" fill="#1A1918"/>
<path d="M236.88 295.79C236.07 296.26 236.07 297.01 236.88 297.48C237.69 297.95 238.99 297.95 239.79 297.48L277.86 275.4C278.67 274.93 278.67 274.18 277.86 273.71C277.05 273.24 275.76 273.24 274.95 273.71L236.88 295.79Z" fill="#1A1918"/>
<path d="M258.28 73.05C258.56 72.89 258.79 73.02 258.79 73.34L258.84 89.87C258.84 90.19 258.62 90.58 258.33 90.75L254.34 93.05C254.06 93.21 253.83 93.08 253.83 92.76L253.78 76.23C253.78 75.91 254 75.51 254.29 75.35L258.28 73.05Z" fill="black"/>
<path d="M243.54 81.22C243.62 81.18 243.69 81.15 243.77 81.15H247.34C247.59 81.15 247.69 81.43 247.57 81.8L241.17 100.3C241.08 100.56 240.9 100.78 240.72 100.88C240.64 100.92 240.57 100.95 240.49 100.95H236.92C236.67 100.95 236.57 100.66 236.69 100.3L243.09 81.8C243.18 81.54 243.36 81.32 243.54 81.22Z" fill="black"/>
<path d="M248.94 78.03C248.94 78.03 249.01 78 249.04 77.98L252.95 76.63C253.23 76.54 253.4 76.74 253.35 77.09L250.54 94.94C250.49 95.24 250.28 95.56 250.04 95.69C250.01 95.71 249.97 95.73 249.94 95.74L246.03 97.09C245.76 97.18 245.58 96.98 245.63 96.63L248.44 78.78C248.49 78.47 248.7 78.16 248.94 78.02V78.03Z" fill="black"/>
<defs>
<linearGradient id="paint0_linear_41_434" x1="90.24" y1="107.98" x2="68.89" y2="14.83" gradientUnits="userSpaceOnUse">
<stop stop-color="#DDDDDD" stop-opacity="0"/>
<stop offset="0.4" stop-color="#DDDDDD" stop-opacity="0.44"/>
<stop offset="0.87" stop-color="#DDDDDD"/>
</linearGradient>
<linearGradient id="paint1_linear_41_434" x1="143.07" y1="87.63" x2="127.76" y2="20.87" gradientUnits="userSpaceOnUse">
<stop offset="0.23" stop-color="#DDDDDD" stop-opacity="0"/>
<stop offset="0.52" stop-color="#DDDDDD" stop-opacity="0.44"/>
<stop offset="0.87" stop-color="#DDDDDD"/>
</linearGradient>
<linearGradient id="paint2_linear_41_434" x1="39.88" y1="179.61" x2="22.1601" y2="102.3" gradientUnits="userSpaceOnUse">
<stop stop-color="#DDDDDD" stop-opacity="0"/>
<stop offset="0.4" stop-color="#DDDDDD" stop-opacity="0.44"/>
<stop offset="0.87" stop-color="#DDDDDD"/>
</linearGradient>
</defs>
</svg>
