<svg width="476" height="465" viewBox="0 0 476 465" fill="none" xmlns="http://www.w3.org/2000/svg">
<path d="M219.44 464.937C219.31 464.937 219.18 464.907 219.06 464.837L182.68 443.827C182.45 443.697 182.3 443.447 182.3 443.177C182.3 442.907 182.44 442.667 182.67 442.527L219.13 421.418C219.36 421.288 219.65 421.288 219.88 421.418L256.34 442.467C256.57 442.597 256.72 442.847 256.72 443.117C256.72 443.387 256.58 443.637 256.34 443.767L219.8 464.827C219.68 464.897 219.55 464.927 219.42 464.927L219.44 464.937ZM184.55 443.177L219.44 463.318L254.48 443.117L219.52 422.937L184.56 443.177H184.55Z" fill="#E3E3E3"/>
<path d="M255.9 443.827C255.77 443.827 255.64 443.798 255.52 443.728L219.14 422.717C218.91 422.587 218.76 422.338 218.76 422.068C218.76 421.798 218.9 421.558 219.13 421.418L255.59 400.307C255.82 400.177 256.11 400.177 256.34 400.307L292.8 421.357C293.03 421.487 293.18 421.738 293.18 422.008C293.18 422.278 293.04 422.527 292.8 422.657L256.26 443.717C256.14 443.787 256.01 443.818 255.88 443.818L255.9 443.827ZM221.01 422.068L255.9 442.207L290.94 422.008L255.98 401.827L221.02 422.068H221.01Z" fill="#E3E3E3"/>
<path d="M292.36 422.728C292.23 422.728 292.1 422.697 291.98 422.627L255.6 401.617C255.37 401.487 255.22 401.237 255.22 400.967C255.22 400.697 255.36 400.458 255.59 400.318L292.05 379.207C292.28 379.077 292.57 379.077 292.8 379.207L329.26 400.258C329.49 400.388 329.64 400.637 329.64 400.907C329.64 401.177 329.5 401.427 329.26 401.557L292.72 422.617C292.6 422.687 292.47 422.717 292.34 422.717L292.36 422.728ZM257.47 400.967L292.36 421.107L327.4 400.907L292.44 380.728L257.48 400.967H257.47Z" fill="#E3E3E3"/>
<path d="M328.75 401.577C328.62 401.577 328.49 401.548 328.37 401.478L291.99 380.467C291.76 380.337 291.61 380.088 291.61 379.818C291.61 379.548 291.75 379.308 291.98 379.168L328.44 358.057C328.67 357.927 328.96 357.927 329.19 358.057L365.65 379.107C365.88 379.237 366.03 379.488 366.03 379.758C366.03 380.028 365.89 380.277 365.65 380.407L329.11 401.467C328.99 401.537 328.86 401.568 328.73 401.568L328.75 401.577ZM293.86 379.818L328.75 399.957L363.79 379.758L328.83 359.577L293.87 379.818H293.86Z" fill="#E3E3E3"/>
<path d="M182.98 443.888C182.85 443.888 182.72 443.858 182.6 443.788L146.22 422.777C145.99 422.647 145.84 422.397 145.84 422.127C145.84 421.857 145.98 421.618 146.21 421.478L182.67 400.367C182.9 400.237 183.19 400.237 183.42 400.367L219.88 421.418C220.11 421.548 220.26 421.798 220.26 422.068C220.26 422.338 220.12 422.587 219.88 422.717L183.34 443.777C183.22 443.847 183.09 443.877 182.96 443.877L182.98 443.888ZM148.09 422.127L182.98 442.267L218.02 422.068L183.06 401.888L148.1 422.127H148.09Z" fill="#E3E3E3"/>
<path d="M219.44 422.777C219.31 422.777 219.18 422.747 219.06 422.677L182.68 401.668C182.45 401.538 182.3 401.287 182.3 401.017C182.3 400.747 182.44 400.507 182.67 400.367L219.13 379.258C219.36 379.128 219.65 379.128 219.88 379.258L256.34 400.307C256.57 400.437 256.72 400.687 256.72 400.957C256.72 401.227 256.58 401.477 256.34 401.607L219.8 422.668C219.68 422.738 219.55 422.767 219.42 422.767L219.44 422.777ZM184.55 401.017L219.44 421.157L254.48 400.957L219.52 380.777L184.56 401.017H184.55Z" fill="#E3E3E3"/>
<path d="M255.9 401.677C255.77 401.677 255.64 401.647 255.52 401.577L219.14 380.568C218.91 380.438 218.76 380.188 218.76 379.918C218.76 379.648 218.9 379.407 219.13 379.267L255.59 358.157C255.82 358.027 256.11 358.027 256.34 358.157L292.8 379.207C293.03 379.337 293.18 379.587 293.18 379.857C293.18 380.127 293.04 380.378 292.8 380.508L256.26 401.568C256.14 401.638 256.01 401.668 255.88 401.668L255.9 401.677ZM221.01 379.918L255.9 400.057L290.94 379.857L255.98 359.677L221.02 379.918H221.01Z" fill="#E3E3E3"/>
<path d="M146.52 422.837C146.39 422.837 146.26 422.807 146.14 422.737L109.76 401.728C109.53 401.598 109.38 401.347 109.38 401.077C109.38 400.807 109.52 400.567 109.75 400.427L146.21 379.318C146.44 379.188 146.73 379.188 146.96 379.318L183.42 400.367C183.65 400.497 183.8 400.747 183.8 401.017C183.8 401.287 183.66 401.538 183.42 401.668L146.88 422.728C146.76 422.798 146.63 422.827 146.5 422.827L146.52 422.837ZM111.63 401.077L146.52 421.217L181.56 401.017L146.6 380.837L111.64 401.077H111.63Z" fill="#E3E3E3"/>
<path d="M182.98 401.728C182.85 401.728 182.72 401.697 182.6 401.627L146.22 380.617C145.99 380.487 145.84 380.237 145.84 379.967C145.84 379.697 145.98 379.458 146.21 379.318L182.67 358.207C182.9 358.077 183.19 358.077 183.42 358.207L219.88 379.258C220.11 379.388 220.26 379.637 220.26 379.907C220.26 380.177 220.12 380.427 219.88 380.557L183.34 401.617C183.22 401.687 183.09 401.717 182.96 401.717L182.98 401.728ZM148.09 379.967L182.98 400.107L218.02 379.907L183.06 359.728L148.1 379.967H148.09Z" fill="#E3E3E3"/>
<path d="M219.44 380.627C219.31 380.627 219.18 380.597 219.06 380.527L182.68 359.517C182.45 359.387 182.3 359.137 182.3 358.867C182.3 358.597 182.44 358.357 182.67 358.217L219.13 337.107C219.36 336.977 219.65 336.977 219.88 337.107L256.34 358.157C256.57 358.287 256.72 358.537 256.72 358.807C256.72 359.077 256.58 359.327 256.34 359.457L219.8 380.517C219.68 380.587 219.55 380.617 219.42 380.617L219.44 380.627ZM184.55 358.867L219.44 379.008L254.48 358.807L219.52 338.627L184.56 358.867H184.55Z" fill="#E3E3E3"/>
<path d="M110.06 401.788C109.93 401.788 109.8 401.757 109.68 401.687L73.2999 380.677C73.0699 380.547 72.9199 380.297 72.9199 380.027C72.9199 379.757 73.0599 379.517 73.2899 379.377L109.75 358.267C109.98 358.137 110.27 358.137 110.5 358.267L146.96 379.318C147.19 379.448 147.34 379.697 147.34 379.967C147.34 380.237 147.2 380.487 146.96 380.617L110.42 401.677C110.3 401.747 110.17 401.777 110.04 401.777L110.06 401.788ZM75.1699 380.027L110.06 400.168L145.1 379.967L110.14 359.788L75.1799 380.027H75.1699Z" fill="#E3E3E3"/>
<path d="M146.52 380.677C146.39 380.677 146.26 380.647 146.14 380.577L109.76 359.568C109.53 359.438 109.38 359.188 109.38 358.918C109.38 358.648 109.52 358.407 109.75 358.267L146.21 337.157C146.44 337.027 146.73 337.027 146.96 337.157L183.42 358.207C183.65 358.337 183.8 358.587 183.8 358.857C183.8 359.127 183.66 359.378 183.42 359.508L146.88 380.568C146.76 380.638 146.63 380.668 146.5 380.668L146.52 380.677ZM111.63 358.918L146.52 379.057L181.56 358.857L146.6 338.677L111.64 358.918H111.63Z" fill="#E3E3E3"/>
<path d="M182.98 359.577C182.85 359.577 182.72 359.548 182.6 359.478L146.22 338.467C145.99 338.337 145.84 338.088 145.84 337.818C145.84 337.548 145.98 337.308 146.21 337.168L182.67 316.057C182.9 315.927 183.19 315.927 183.42 316.057L219.88 337.107C220.11 337.237 220.26 337.488 220.26 337.758C220.26 338.028 220.12 338.277 219.88 338.407L183.34 359.467C183.22 359.537 183.09 359.568 182.96 359.568L182.98 359.577ZM148.09 337.818L182.98 357.957L218.02 337.758L183.06 317.577L148.1 337.818H148.09Z" fill="#E3E3E3"/>
<path d="M73.5899 380.737C73.4599 380.737 73.3299 380.708 73.2099 380.638L36.83 359.627C36.6 359.497 36.45 359.248 36.45 358.978C36.45 358.708 36.59 358.467 36.82 358.327L73.2799 337.217C73.5099 337.087 73.7999 337.087 74.0299 337.217L110.49 358.267C110.72 358.397 110.87 358.648 110.87 358.918C110.87 359.188 110.73 359.438 110.49 359.568L73.9499 380.627C73.8299 380.697 73.7 380.728 73.57 380.728L73.5899 380.737ZM38.7 358.978L73.5899 379.117L108.63 358.918L73.6699 338.737L38.7099 358.978H38.7Z" fill="#E3E3E3"/>
<path d="M292.44 380.607C292.31 380.607 292.18 380.578 292.06 380.508L255.68 359.497C255.45 359.367 255.3 359.118 255.3 358.847C255.3 358.577 255.44 358.338 255.67 358.198L292.13 337.087C292.36 336.957 292.65 336.957 292.88 337.087L329.34 358.138C329.57 358.268 329.72 358.518 329.72 358.788C329.72 359.058 329.58 359.307 329.34 359.437L292.8 380.497C292.68 380.567 292.55 380.597 292.42 380.597L292.44 380.607ZM257.55 358.847L292.44 378.987L327.48 358.788L292.52 338.607L257.56 358.847H257.55Z" fill="#E3E3E3"/>
<path d="M255.98 359.557C255.85 359.557 255.72 359.527 255.6 359.457L219.22 338.448C218.99 338.318 218.84 338.067 218.84 337.797C218.84 337.527 218.98 337.287 219.21 337.147L255.67 316.038C255.9 315.908 256.19 315.908 256.42 316.038L292.88 337.087C293.11 337.217 293.26 337.467 293.26 337.737C293.26 338.007 293.12 338.258 292.88 338.388L256.34 359.448C256.22 359.518 256.09 359.547 255.96 359.547L255.98 359.557ZM221.09 337.797L255.98 357.937L291.02 337.737L256.06 317.557L221.1 337.797H221.09Z" fill="#E3E3E3"/>
<path d="M219.52 338.508C219.39 338.508 219.26 338.477 219.14 338.407L182.76 317.397C182.53 317.267 182.38 317.017 182.38 316.747C182.38 316.477 182.52 316.237 182.75 316.097L219.21 294.987C219.44 294.857 219.73 294.857 219.96 294.987L256.42 316.038C256.65 316.168 256.8 316.417 256.8 316.687C256.8 316.957 256.66 317.207 256.42 317.337L219.88 338.397C219.76 338.467 219.63 338.497 219.5 338.497L219.52 338.508ZM184.63 316.747L219.52 336.888L254.56 316.687L219.6 296.508L184.64 316.747H184.63Z" fill="#E3E3E3"/>
<path d="M183.06 317.457C182.93 317.457 182.8 317.427 182.68 317.357L146.3 296.347C146.07 296.218 145.92 295.968 145.92 295.698C145.92 295.428 146.06 295.187 146.29 295.047L182.75 273.937C182.98 273.807 183.27 273.807 183.5 273.937L219.96 294.987C220.19 295.117 220.34 295.368 220.34 295.638C220.34 295.908 220.2 296.158 219.96 296.288L183.42 317.347C183.3 317.417 183.17 317.448 183.04 317.448L183.06 317.457ZM148.17 295.698L183.06 315.837L218.1 295.638L183.14 275.457L148.18 295.698H148.17Z" fill="#E3E3E3"/>
<path d="M328.9 359.508C328.77 359.508 328.64 359.477 328.52 359.407L292.14 338.397C291.91 338.267 291.76 338.017 291.76 337.747C291.76 337.477 291.9 337.237 292.13 337.097L328.59 315.987C328.82 315.857 329.11 315.857 329.34 315.987L365.8 337.038C366.03 337.168 366.18 337.417 366.18 337.687C366.18 337.957 366.04 338.207 365.8 338.337L329.26 359.397C329.14 359.467 329.01 359.497 328.88 359.497L328.9 359.508ZM294.01 337.747L328.9 357.888L363.94 337.687L328.98 317.508L294.02 337.747H294.01Z" fill="#E3E3E3"/>
<path d="M292.44 338.457C292.31 338.457 292.18 338.427 292.06 338.357L255.68 317.347C255.45 317.218 255.3 316.968 255.3 316.698C255.3 316.428 255.44 316.187 255.67 316.047L292.13 294.937C292.36 294.807 292.65 294.807 292.88 294.937L329.34 315.987C329.57 316.117 329.72 316.368 329.72 316.638C329.72 316.908 329.58 317.158 329.34 317.288L292.8 338.347C292.68 338.417 292.55 338.448 292.42 338.448L292.44 338.457ZM257.55 316.698L292.44 336.837L327.48 316.638L292.52 296.457L257.56 316.698H257.55Z" fill="#E3E3E3"/>
<path d="M255.98 317.397C255.85 317.397 255.72 317.367 255.6 317.297L219.22 296.288C218.99 296.158 218.84 295.908 218.84 295.638C218.84 295.368 218.98 295.127 219.21 294.987L255.67 273.877C255.9 273.747 256.19 273.747 256.42 273.877L292.88 294.927C293.11 295.057 293.26 295.307 293.26 295.577C293.26 295.847 293.12 296.098 292.88 296.228L256.34 317.288C256.22 317.358 256.09 317.388 255.96 317.388L255.98 317.397ZM221.09 295.638L255.98 315.777L291.02 295.577L256.06 275.397L221.1 295.638H221.09Z" fill="#E3E3E3"/>
<path d="M219.52 296.347C219.39 296.347 219.26 296.317 219.14 296.247L182.76 275.237C182.53 275.107 182.38 274.857 182.38 274.587C182.38 274.317 182.52 274.077 182.75 273.937L219.21 252.827C219.44 252.697 219.73 252.697 219.96 252.827L256.42 273.877C256.65 274.007 256.8 274.257 256.8 274.527C256.8 274.797 256.66 275.047 256.42 275.177L219.88 296.237C219.76 296.307 219.63 296.337 219.5 296.337L219.52 296.347ZM184.63 274.587L219.52 294.728L254.56 274.527L219.6 254.347L184.64 274.587H184.63Z" fill="#E3E3E3"/>
<path d="M365.44 338.437C365.31 338.437 365.18 338.407 365.06 338.337L328.68 317.327C328.45 317.197 328.3 316.947 328.3 316.677C328.3 316.407 328.44 316.167 328.67 316.027L365.13 294.918C365.36 294.788 365.65 294.788 365.88 294.918L402.34 315.967C402.57 316.097 402.72 316.347 402.72 316.617C402.72 316.887 402.58 317.137 402.34 317.267L365.8 338.327C365.68 338.397 365.55 338.427 365.42 338.427L365.44 338.437ZM330.55 316.677L365.44 336.818L400.48 316.617L365.52 296.437L330.56 316.677H330.55Z" fill="#E3E3E3"/>
<path d="M328.98 317.388C328.85 317.388 328.72 317.358 328.6 317.288L292.22 296.277C291.99 296.147 291.84 295.897 291.84 295.627C291.84 295.357 291.98 295.118 292.21 294.978L328.67 273.867C328.9 273.737 329.19 273.737 329.42 273.867L365.88 294.918C366.11 295.048 366.26 295.298 366.26 295.568C366.26 295.838 366.12 296.087 365.88 296.217L329.34 317.277C329.22 317.347 329.09 317.377 328.96 317.377L328.98 317.388ZM294.09 295.627L328.98 315.767L364.02 295.568L329.06 275.388L294.1 295.627H294.09Z" fill="#E3E3E3"/>
<path d="M292.52 296.337C292.39 296.337 292.26 296.307 292.14 296.237L255.76 275.228C255.53 275.098 255.38 274.847 255.38 274.577C255.38 274.307 255.52 274.067 255.75 273.927L292.21 252.818C292.44 252.688 292.73 252.688 292.96 252.818L329.42 273.867C329.65 273.997 329.8 274.247 329.8 274.517C329.8 274.787 329.66 275.038 329.42 275.168L292.88 296.228C292.76 296.298 292.63 296.327 292.5 296.327L292.52 296.337ZM257.63 274.577L292.52 294.717L327.56 274.517L292.6 254.337L257.64 274.577H257.63Z" fill="#E3E3E3"/>
<path d="M256.06 275.288C255.93 275.288 255.8 275.257 255.68 275.187L219.3 254.177C219.07 254.047 218.92 253.797 218.92 253.527C218.92 253.257 219.06 253.017 219.29 252.877L255.75 231.767C255.98 231.637 256.27 231.637 256.5 231.767L292.96 252.818C293.19 252.948 293.34 253.197 293.34 253.467C293.34 253.737 293.2 253.987 292.96 254.117L256.42 275.177C256.3 275.247 256.17 275.277 256.04 275.277L256.06 275.288ZM221.17 253.527L256.06 273.668L291.1 253.467L256.14 233.287L221.18 253.527H221.17Z" fill="#E3E3E3"/>
<path d="M401.9 317.337C401.77 317.337 401.64 317.307 401.52 317.237L365.14 296.228C364.91 296.098 364.76 295.847 364.76 295.577C364.76 295.307 364.9 295.067 365.13 294.927L401.59 273.818C401.82 273.688 402.11 273.688 402.34 273.818L438.8 294.867C439.03 294.997 439.18 295.247 439.18 295.517C439.18 295.787 439.04 296.038 438.8 296.168L402.26 317.228C402.14 317.298 402.01 317.327 401.88 317.327L401.9 317.337ZM367.01 295.577L401.9 315.717L436.94 295.517L401.98 275.337L367.02 295.577H367.01Z" fill="#E3E3E3"/>
<path d="M365.44 296.277C365.31 296.277 365.18 296.247 365.06 296.177L328.68 275.168C328.45 275.038 328.3 274.787 328.3 274.517C328.3 274.247 328.44 274.007 328.67 273.867L365.13 252.757C365.36 252.627 365.65 252.627 365.88 252.757L402.34 273.807C402.57 273.937 402.72 274.187 402.72 274.457C402.72 274.727 402.58 274.977 402.34 275.107L365.8 296.168C365.68 296.238 365.55 296.267 365.42 296.267L365.44 296.277ZM330.55 274.517L365.44 294.657L400.48 274.457L365.52 254.277L330.56 274.517H330.55Z" fill="#E3E3E3"/>
<path d="M328.98 275.228C328.85 275.228 328.72 275.197 328.6 275.127L292.22 254.117C291.99 253.987 291.84 253.737 291.84 253.467C291.84 253.197 291.98 252.958 292.21 252.818L328.67 231.708C328.9 231.578 329.19 231.578 329.42 231.708L365.88 252.757C366.11 252.887 366.26 253.137 366.26 253.407C366.26 253.677 366.12 253.927 365.88 254.057L329.34 275.117C329.22 275.187 329.09 275.217 328.96 275.217L328.98 275.228ZM294.09 253.467L328.98 273.607L364.02 253.407L329.06 233.227L294.1 253.467H294.09Z" fill="#E3E3E3"/>
<path d="M292.52 254.177C292.39 254.177 292.26 254.147 292.14 254.077L255.76 233.068C255.53 232.938 255.38 232.687 255.38 232.417C255.38 232.147 255.52 231.907 255.75 231.767L292.21 210.657C292.44 210.527 292.73 210.527 292.96 210.657L329.42 231.708C329.65 231.837 329.8 232.087 329.8 232.357C329.8 232.627 329.66 232.877 329.42 233.007L292.88 254.068C292.76 254.138 292.63 254.167 292.5 254.167L292.52 254.177ZM257.63 232.417L292.52 252.557L327.56 232.357L292.6 212.177L257.64 232.417H257.63Z" fill="#E3E3E3"/>
<path d="M402.05 233.107C401.92 233.107 401.79 233.077 401.67 233.007L365.29 211.997C365.06 211.867 364.91 211.618 364.91 211.347C364.91 211.077 365.05 210.837 365.28 210.697L401.74 189.587C401.97 189.457 402.26 189.457 402.49 189.587L438.95 210.637C439.18 210.767 439.33 211.017 439.33 211.287C439.33 211.557 439.19 211.807 438.95 211.937L402.41 232.997C402.29 233.067 402.16 233.097 402.03 233.097L402.05 233.107ZM367.16 211.347L402.05 231.487L437.09 211.287L402.13 191.107L367.17 211.347H367.16Z" fill="#E3E3E3"/>
<path d="M365.59 212.057C365.46 212.057 365.33 212.028 365.21 211.958L328.83 190.947C328.6 190.817 328.45 190.567 328.45 190.297C328.45 190.027 328.59 189.787 328.82 189.647L365.28 168.537C365.51 168.407 365.8 168.407 366.03 168.537L402.49 189.587C402.72 189.717 402.87 189.967 402.87 190.237C402.87 190.507 402.73 190.757 402.49 190.887L365.95 211.947C365.83 212.017 365.7 212.047 365.57 212.047L365.59 212.057ZM330.7 190.297L365.59 210.437L400.63 190.237L365.67 170.057L330.71 190.297H330.7Z" fill="#E3E3E3"/>
<path d="M329.21 191.047C329.08 191.047 328.95 191.017 328.83 190.947L292.45 169.937C292.22 169.807 292.07 169.557 292.07 169.287C292.07 169.017 292.21 168.777 292.44 168.637L328.9 147.527C329.13 147.397 329.42 147.397 329.65 147.527L366.11 168.577C366.34 168.707 366.49 168.957 366.49 169.227C366.49 169.497 366.35 169.747 366.11 169.877L329.57 190.937C329.45 191.007 329.32 191.037 329.19 191.037L329.21 191.047ZM294.32 169.287L329.21 189.427L364.25 169.227L329.29 149.047L294.33 169.287H294.32Z" fill="#E3E3E3"/>
<path d="M256.06 233.127C255.93 233.127 255.8 233.097 255.68 233.027L219.3 212.017C219.07 211.887 218.92 211.637 218.92 211.367C218.92 211.097 219.06 210.857 219.29 210.717L255.75 189.607C255.98 189.477 256.27 189.477 256.5 189.607L292.96 210.657C293.19 210.787 293.34 211.037 293.34 211.307C293.34 211.577 293.2 211.828 292.96 211.958L256.42 233.017C256.3 233.087 256.17 233.117 256.04 233.117L256.06 233.127ZM221.17 211.367L256.06 231.507L291.1 211.307L256.14 191.127L221.18 211.367H221.17Z" fill="#E3E3E3"/>
<path d="M219.59 254.237C219.46 254.237 219.33 254.207 219.21 254.137L182.83 233.127C182.6 232.997 182.45 232.747 182.45 232.477C182.45 232.207 182.59 231.967 182.82 231.827L219.28 210.717C219.51 210.587 219.8 210.587 220.03 210.717L256.49 231.767C256.72 231.897 256.87 232.147 256.87 232.417C256.87 232.687 256.73 232.938 256.49 233.068L219.95 254.127C219.83 254.197 219.7 254.227 219.57 254.227L219.59 254.237ZM184.7 232.477L219.59 252.617L254.63 232.417L219.67 212.237L184.71 232.477H184.7Z" fill="#E3E3E3"/>
<path d="M183.06 275.297C182.93 275.297 182.8 275.268 182.68 275.198L146.3 254.187C146.07 254.057 145.92 253.807 145.92 253.537C145.92 253.267 146.06 253.027 146.29 252.887L182.75 231.777C182.98 231.647 183.27 231.647 183.5 231.777L219.96 252.827C220.19 252.957 220.34 253.207 220.34 253.477C220.34 253.747 220.2 253.997 219.96 254.127L183.42 275.187C183.3 275.257 183.17 275.288 183.04 275.288L183.06 275.297ZM148.17 253.537L183.06 273.677L218.1 253.477L183.14 233.297L148.18 253.537H148.17Z" fill="#E3E3E3"/>
<path d="M146.6 296.407C146.47 296.407 146.34 296.377 146.22 296.307L109.84 275.297C109.61 275.167 109.46 274.917 109.46 274.647C109.46 274.377 109.6 274.137 109.83 273.997L146.29 252.887C146.52 252.757 146.81 252.757 147.04 252.887L183.5 273.937C183.73 274.067 183.88 274.317 183.88 274.587C183.88 274.857 183.74 275.107 183.5 275.237L146.96 296.297C146.84 296.367 146.71 296.397 146.58 296.397L146.6 296.407ZM111.71 274.647L146.6 294.788L181.64 274.587L146.68 254.407L111.72 274.647H111.71Z" fill="#E3E3E3"/>
<path d="M365.52 254.167C365.39 254.167 365.26 254.138 365.14 254.068L328.76 233.057C328.53 232.927 328.38 232.677 328.38 232.407C328.38 232.137 328.52 231.897 328.75 231.757L365.21 210.647C365.44 210.517 365.73 210.517 365.96 210.647L402.42 231.697C402.65 231.827 402.8 232.077 402.8 232.347C402.8 232.618 402.66 232.867 402.42 232.997L365.88 254.057C365.76 254.127 365.63 254.157 365.5 254.157L365.52 254.167ZM330.63 232.407L365.52 252.547L400.56 232.347L365.6 212.167L330.64 232.407H330.63Z" fill="#E3E3E3"/>
<path d="M329.06 233.117C328.93 233.117 328.8 233.087 328.68 233.017L292.3 212.007C292.07 211.877 291.92 211.627 291.92 211.357C291.92 211.087 292.06 210.847 292.29 210.708L328.75 189.597C328.98 189.468 329.27 189.468 329.5 189.597L365.96 210.647C366.19 210.777 366.34 211.027 366.34 211.297C366.34 211.567 366.2 211.817 365.96 211.947L329.42 233.007C329.3 233.077 329.17 233.107 329.04 233.107L329.06 233.117ZM294.17 211.357L329.06 231.497L364.1 211.297L329.14 191.117L294.18 211.357H294.17Z" fill="#E3E3E3"/>
<path d="M292.59 212.068C292.46 212.068 292.33 212.037 292.21 211.967L255.83 190.958C255.6 190.828 255.45 190.577 255.45 190.307C255.45 190.037 255.59 189.797 255.82 189.657L292.28 168.547C292.51 168.417 292.8 168.417 293.03 168.547L329.49 189.597C329.72 189.727 329.87 189.977 329.87 190.247C329.87 190.517 329.73 190.767 329.49 190.897L292.95 211.958C292.83 212.028 292.7 212.057 292.57 212.057L292.59 212.068ZM257.7 190.307L292.59 210.447L327.63 190.247L292.67 170.068L257.71 190.307H257.7Z" fill="#E3E3E3"/>
<path d="M110.06 359.627C109.93 359.627 109.8 359.597 109.68 359.527L73.2999 338.517C73.0699 338.387 72.9199 338.137 72.9199 337.867C72.9199 337.597 73.0599 337.357 73.2899 337.217L109.75 316.107C109.98 315.977 110.27 315.977 110.5 316.107L146.96 337.157C147.19 337.287 147.34 337.537 147.34 337.807C147.34 338.077 147.2 338.327 146.96 338.457L110.42 359.517C110.3 359.587 110.17 359.617 110.04 359.617L110.06 359.627ZM75.1699 337.867L110.06 358.008L145.1 337.807L110.14 317.627L75.1799 337.867H75.1699Z" fill="#E3E3E3"/>
<path d="M146.52 338.517C146.39 338.517 146.26 338.488 146.14 338.418L109.76 317.407C109.53 317.277 109.38 317.028 109.38 316.758C109.38 316.488 109.52 316.247 109.75 316.107L146.21 294.997C146.44 294.867 146.73 294.867 146.96 294.997L183.42 316.047C183.65 316.177 183.8 316.428 183.8 316.698C183.8 316.968 183.66 317.218 183.42 317.347L146.88 338.407C146.76 338.477 146.63 338.508 146.5 338.508L146.52 338.517ZM111.63 316.758L146.52 336.897L181.56 316.698L146.6 296.517L111.64 316.758H111.63Z" fill="#E3E3E3"/>
<path d="M73.6 338.577C73.47 338.577 73.34 338.548 73.22 338.478L36.84 317.467C36.61 317.337 36.46 317.088 36.46 316.818C36.46 316.548 36.6 316.308 36.83 316.168L73.29 295.057C73.52 294.927 73.81 294.927 74.04 295.057L110.5 316.107C110.73 316.237 110.88 316.488 110.88 316.758C110.88 317.028 110.74 317.277 110.5 317.407L73.96 338.467C73.84 338.537 73.71 338.568 73.58 338.568L73.6 338.577ZM38.71 316.818L73.6 336.957L108.64 316.758L73.68 296.577L38.72 316.818H38.71Z" fill="#E3E3E3"/>
<path d="M37.13 359.687C37 359.687 36.87 359.657 36.75 359.587L0.38 338.577C0.15 338.447 0 338.197 0 337.927C0 337.657 0.14 337.417 0.37 337.277L36.83 316.168C37.06 316.038 37.35 316.038 37.58 316.168L74.04 337.217C74.27 337.347 74.42 337.597 74.42 337.867C74.42 338.137 74.28 338.387 74.04 338.517L37.5 359.577C37.38 359.647 37.25 359.677 37.12 359.677L37.13 359.687ZM2.25 337.927L37.14 358.068L72.18 337.867L37.22 317.687L2.25 337.927Z" fill="#E3E3E3"/>
<path d="M110.06 317.467C109.93 317.467 109.8 317.437 109.68 317.367L73.2999 296.357C73.0699 296.227 72.9199 295.977 72.9199 295.707C72.9199 295.437 73.0599 295.197 73.2899 295.057L109.75 273.948C109.98 273.818 110.27 273.818 110.5 273.948L146.96 294.997C147.19 295.127 147.34 295.377 147.34 295.647C147.34 295.917 147.2 296.167 146.96 296.297L110.42 317.357C110.3 317.427 110.17 317.457 110.04 317.457L110.06 317.467ZM75.1699 295.707L110.06 315.847L145.1 295.647L110.14 275.467L75.1799 295.707H75.1699Z" fill="#E3E3E3"/>
<path d="M110.06 233.157C109.93 233.157 109.8 233.127 109.68 233.057L73.2999 212.047C73.0699 211.917 72.9199 211.667 72.9199 211.397C72.9199 211.127 73.0599 210.887 73.2899 210.747L109.75 189.637C109.98 189.507 110.27 189.507 110.5 189.637L146.96 210.687C147.19 210.817 147.34 211.067 147.34 211.337C147.34 211.607 147.2 211.858 146.96 211.987L110.42 233.047C110.3 233.117 110.17 233.147 110.04 233.147L110.06 233.157ZM75.1699 211.397L110.06 231.537L145.1 211.337L110.14 191.157L75.1799 211.397H75.1699Z" fill="#E3E3E3"/>
<path d="M146.52 254.208C146.39 254.208 146.26 254.177 146.14 254.107L109.76 233.097C109.53 232.968 109.38 232.717 109.38 232.447C109.38 232.177 109.52 231.937 109.75 231.797L146.21 210.687C146.44 210.557 146.73 210.557 146.96 210.687L183.42 231.737C183.65 231.867 183.8 232.117 183.8 232.387C183.8 232.657 183.66 232.907 183.42 233.037L146.88 254.097C146.76 254.167 146.63 254.197 146.5 254.197L146.52 254.208ZM111.63 232.447L146.52 252.587L181.56 232.387L146.6 212.208L111.64 232.447H111.63Z" fill="#E3E3E3"/>
<path d="M146.52 212.047C146.39 212.047 146.26 212.017 146.14 211.947L109.76 190.937C109.53 190.807 109.38 190.557 109.38 190.287C109.38 190.017 109.52 189.777 109.75 189.637L146.21 168.527C146.44 168.397 146.73 168.397 146.96 168.527L183.42 189.577C183.65 189.707 183.8 189.957 183.8 190.227C183.8 190.497 183.66 190.747 183.42 190.877L146.88 211.937C146.76 212.007 146.63 212.037 146.5 212.037L146.52 212.047ZM111.63 190.287L146.52 210.427L181.56 190.227L146.6 170.047L111.64 190.287H111.63Z" fill="#E3E3E3"/>
<path d="M183.06 190.987C182.93 190.987 182.8 190.957 182.68 190.887L146.3 169.877C146.07 169.747 145.92 169.497 145.92 169.227C145.92 168.957 146.06 168.717 146.29 168.577L182.75 147.467C182.98 147.337 183.27 147.337 183.5 147.467L219.96 168.517C220.19 168.647 220.34 168.897 220.34 169.167C220.34 169.437 220.2 169.688 219.96 169.818L183.42 190.877C183.3 190.947 183.17 190.977 183.04 190.977L183.06 190.987ZM148.17 169.227L183.06 189.367L218.1 169.167L183.14 148.987L148.18 169.227H148.17Z" fill="#E3E3E3"/>
<path d="M219.67 169.967C219.54 169.967 219.41 169.937 219.29 169.867L182.91 148.857C182.68 148.727 182.53 148.478 182.53 148.208C182.53 147.938 182.67 147.697 182.9 147.557L219.36 126.447C219.59 126.317 219.88 126.317 220.11 126.447L256.57 147.497C256.8 147.627 256.95 147.877 256.95 148.147C256.95 148.417 256.81 148.667 256.57 148.797L220.03 169.857C219.91 169.927 219.78 169.958 219.65 169.958L219.67 169.967ZM184.78 148.208L219.67 168.347L254.71 148.147L219.75 127.967L184.79 148.208H184.78Z" fill="#E3E3E3"/>
<path d="M256.21 148.897C256.08 148.897 255.95 148.868 255.83 148.798L219.45 127.788C219.22 127.658 219.07 127.408 219.07 127.138C219.07 126.868 219.21 126.627 219.44 126.487L255.9 105.377C256.13 105.247 256.42 105.247 256.65 105.377L293.11 126.428C293.34 126.558 293.49 126.808 293.49 127.078C293.49 127.348 293.35 127.598 293.11 127.728L256.57 148.787C256.45 148.857 256.32 148.888 256.19 148.888L256.21 148.897ZM221.32 127.138L256.21 147.278L291.25 127.078L256.29 106.898L221.33 127.138H221.32Z" fill="#E3E3E3"/>
<path d="M292.75 127.837C292.62 127.837 292.49 127.807 292.37 127.737L255.99 106.728C255.76 106.598 255.61 106.348 255.61 106.078C255.61 105.808 255.75 105.568 255.98 105.428L292.44 84.3175C292.67 84.1875 292.96 84.1875 293.19 84.3175L329.65 105.368C329.88 105.498 330.03 105.747 330.03 106.017C330.03 106.287 329.89 106.538 329.65 106.667L293.11 127.728C292.99 127.798 292.86 127.828 292.73 127.828L292.75 127.837ZM257.86 106.078L292.75 126.218L327.79 106.017L292.83 85.8375L257.87 106.078H257.86Z" fill="#E3E3E3"/>
<path d="M329.29 148.937C329.16 148.937 329.03 148.907 328.91 148.837L292.53 127.827C292.3 127.697 292.15 127.447 292.15 127.177C292.15 126.907 292.29 126.667 292.52 126.527L328.98 105.417C329.21 105.287 329.5 105.287 329.73 105.417L366.19 126.467C366.42 126.597 366.57 126.847 366.57 127.117C366.57 127.387 366.43 127.637 366.19 127.767L329.65 148.827C329.53 148.897 329.4 148.927 329.27 148.927L329.29 148.937ZM294.4 127.177L329.29 147.318L364.33 127.117L329.37 106.937L294.41 127.177H294.4Z" fill="#E3E3E3"/>
<path d="M365.75 169.987C365.62 169.987 365.49 169.957 365.37 169.887L328.99 148.877C328.76 148.747 328.61 148.497 328.61 148.227C328.61 147.957 328.75 147.717 328.98 147.577L365.44 126.467C365.67 126.337 365.96 126.337 366.19 126.467L402.65 147.517C402.88 147.647 403.03 147.897 403.03 148.167C403.03 148.437 402.89 148.688 402.65 148.818L366.11 169.877C365.99 169.947 365.86 169.977 365.73 169.977L365.75 169.987ZM330.86 148.227L365.75 168.367L400.79 148.167L365.83 127.987L330.87 148.227H330.86Z" fill="#E3E3E3"/>
<path d="M402.13 190.987C402 190.987 401.87 190.957 401.75 190.887L365.37 169.877C365.14 169.747 364.99 169.497 364.99 169.227C364.99 168.957 365.13 168.717 365.36 168.577L401.82 147.467C402.05 147.337 402.34 147.337 402.57 147.467L439.03 168.517C439.26 168.647 439.41 168.897 439.41 169.167C439.41 169.437 439.27 169.688 439.03 169.818L402.49 190.877C402.37 190.947 402.24 190.977 402.11 190.977L402.13 190.987ZM367.24 169.227L402.13 189.367L437.17 169.167L402.21 148.987L367.25 169.227H367.24Z" fill="#E3E3E3"/>
<path d="M438.59 212.037C438.46 212.037 438.33 212.007 438.21 211.937L401.83 190.927C401.6 190.797 401.45 190.547 401.45 190.277C401.45 190.007 401.59 189.767 401.82 189.627L438.28 168.517C438.51 168.387 438.8 168.387 439.03 168.517L475.49 189.568C475.72 189.698 475.87 189.947 475.87 190.217C475.87 190.487 475.73 190.737 475.49 190.867L438.95 211.927C438.83 211.997 438.7 212.027 438.57 212.027L438.59 212.037ZM403.7 190.277L438.59 210.417L473.63 190.217L438.67 170.037L403.71 190.277H403.7Z" fill="#E3E3E3"/>
<path d="M365.83 127.868C365.7 127.868 365.57 127.837 365.45 127.767L329.07 106.758C328.84 106.628 328.69 106.378 328.69 106.108C328.69 105.838 328.83 105.597 329.06 105.458L365.52 84.3475C365.75 84.2175 366.04 84.2175 366.27 84.3475L402.73 105.398C402.96 105.528 403.11 105.778 403.11 106.048C403.11 106.318 402.97 106.567 402.73 106.697L366.19 127.758C366.07 127.828 365.94 127.858 365.81 127.858L365.83 127.868ZM330.94 106.108L365.83 126.248L400.87 106.048L365.91 85.8675L330.95 106.108H330.94Z" fill="#E3E3E3"/>
<path d="M329.29 106.778C329.16 106.778 329.03 106.748 328.91 106.678L292.53 85.6675C292.3 85.5375 292.15 85.2875 292.15 85.0175C292.15 84.7475 292.29 84.5075 292.52 84.3675L328.98 63.2575C329.21 63.1275 329.5 63.1275 329.73 63.2575L366.19 84.3075C366.42 84.4375 366.57 84.6875 366.57 84.9575C366.57 85.2275 366.43 85.4775 366.19 85.6075L329.65 106.668C329.53 106.738 329.4 106.768 329.27 106.768L329.29 106.778ZM294.4 85.0175L329.29 105.158L364.33 84.9575L329.37 64.7775L294.41 85.0175H294.4Z" fill="#E3E3E3"/>
<path d="M292.83 85.7275C292.7 85.7275 292.57 85.6975 292.45 85.6275L256.07 64.6175C255.84 64.4875 255.69 64.2375 255.69 63.9675C255.69 63.6975 255.83 63.4575 256.06 63.3175L292.52 42.2075C292.75 42.0775 293.04 42.0775 293.27 42.2075L329.73 63.2575C329.96 63.3875 330.11 63.6375 330.11 63.9075C330.11 64.1775 329.97 64.4275 329.73 64.5575L293.19 85.6175C293.07 85.6875 292.94 85.7175 292.81 85.7175L292.83 85.7275ZM257.94 63.9675L292.83 84.1075L327.87 63.9075L292.91 43.7275L257.95 63.9675H257.94Z" fill="#E3E3E3"/>
<path d="M329.36 64.6575C329.23 64.6575 329.1 64.6275 328.98 64.5575L292.6 43.5475C292.37 43.4175 292.22 43.1675 292.22 42.8975C292.22 42.6275 292.36 42.3875 292.59 42.2475L329.05 21.1375C329.28 21.0075 329.57 21.0075 329.8 21.1375L366.26 42.1875C366.49 42.3175 366.64 42.5675 366.64 42.8375C366.64 43.1075 366.5 43.3575 366.26 43.4875L329.72 64.5475C329.6 64.6175 329.47 64.6475 329.34 64.6475L329.36 64.6575ZM294.47 42.8975L329.36 63.0375L364.4 42.8375L329.44 22.6575L294.48 42.8975H294.47Z" fill="#E3E3E3"/>
<path d="M365.83 85.7175C365.7 85.7175 365.57 85.6875 365.45 85.6175L329.07 64.6075C328.84 64.4775 328.69 64.2275 328.69 63.9575C328.69 63.6875 328.83 63.4475 329.06 63.3075L365.52 42.1975C365.75 42.0675 366.04 42.0675 366.27 42.1975L402.73 63.2475C402.96 63.3775 403.11 63.6275 403.11 63.8975C403.11 64.1675 402.97 64.4175 402.73 64.5475L366.19 85.6075C366.07 85.6775 365.94 85.7075 365.81 85.7075L365.83 85.7175ZM330.94 63.9575L365.83 84.0975L400.87 63.8975L365.91 43.7175L330.95 63.9575H330.94Z" fill="#E3E3E3"/>
<path d="M402.36 106.807C402.23 106.807 402.1 106.778 401.98 106.708L365.6 85.6975C365.37 85.5675 365.22 85.3175 365.22 85.0475C365.22 84.7775 365.36 84.5375 365.59 84.3975L402.05 63.2875C402.28 63.1575 402.57 63.1575 402.8 63.2875L439.26 84.3375C439.49 84.4675 439.64 84.7175 439.64 84.9875C439.64 85.2575 439.5 85.5075 439.26 85.6375L402.72 106.697C402.6 106.767 402.47 106.798 402.34 106.798L402.36 106.807ZM367.47 85.0475L402.36 105.188L437.4 84.9875L402.44 64.8075L367.48 85.0475H367.47Z" fill="#E3E3E3"/>
<path d="M256.29 106.787C256.16 106.787 256.03 106.757 255.91 106.687L219.53 85.6775C219.3 85.5475 219.15 85.2975 219.15 85.0275C219.15 84.7575 219.29 84.5175 219.52 84.3775L255.98 63.2675C256.21 63.1375 256.5 63.1375 256.73 63.2675L293.19 84.3175C293.42 84.4475 293.57 84.6975 293.57 84.9675C293.57 85.2375 293.43 85.4875 293.19 85.6175L256.65 106.677C256.53 106.747 256.4 106.777 256.27 106.777L256.29 106.787ZM221.4 85.0275L256.29 105.167L291.33 84.9675L256.37 64.7875L221.41 85.0275H221.4Z" fill="#E3E3E3"/>
<path d="M219.75 127.847C219.62 127.847 219.49 127.817 219.37 127.747L182.99 106.737C182.76 106.607 182.61 106.357 182.61 106.087C182.61 105.817 182.75 105.577 182.98 105.437L219.44 84.3275C219.67 84.1975 219.96 84.1975 220.19 84.3275L256.65 105.377C256.88 105.507 257.03 105.757 257.03 106.027C257.03 106.297 256.89 106.547 256.65 106.677L220.11 127.737C219.99 127.807 219.86 127.837 219.73 127.837L219.75 127.847ZM184.86 106.087L219.75 126.227L254.79 106.027L219.83 85.8475L184.87 106.087H184.86Z" fill="#E3E3E3"/>
<path d="M183.14 148.867C183.01 148.867 182.88 148.838 182.76 148.768L146.38 127.758C146.15 127.628 146 127.378 146 127.108C146 126.838 146.14 126.597 146.37 126.458L182.83 105.347C183.06 105.218 183.35 105.218 183.58 105.347L220.04 126.398C220.27 126.528 220.42 126.778 220.42 127.048C220.42 127.318 220.28 127.567 220.04 127.697L183.5 148.757C183.38 148.827 183.25 148.858 183.12 148.858L183.14 148.867ZM148.25 127.108L183.14 147.248L218.18 127.048L183.22 106.868L148.26 127.108H148.25Z" fill="#E3E3E3"/>
<path d="M146.6 169.937C146.47 169.937 146.34 169.907 146.22 169.837L109.84 148.827C109.61 148.697 109.46 148.447 109.46 148.177C109.46 147.907 109.6 147.667 109.83 147.527L146.29 126.417C146.52 126.287 146.81 126.287 147.04 126.417L183.5 147.467C183.73 147.597 183.88 147.847 183.88 148.117C183.88 148.387 183.74 148.637 183.5 148.767L146.96 169.827C146.84 169.897 146.71 169.927 146.58 169.927L146.6 169.937ZM111.71 148.177L146.6 168.318L181.64 148.117L146.68 127.937L111.72 148.177H111.71Z" fill="#E3E3E3"/>
<path d="M110.14 191.037C110.01 191.037 109.88 191.007 109.76 190.937L73.38 169.927C73.15 169.797 73 169.547 73 169.277C73 169.007 73.14 168.767 73.37 168.627L109.83 147.517C110.06 147.387 110.35 147.387 110.58 147.517L147.04 168.568C147.27 168.698 147.42 168.947 147.42 169.217C147.42 169.487 147.28 169.737 147.04 169.867L110.5 190.927C110.38 190.997 110.25 191.027 110.12 191.027L110.14 191.037ZM75.25 169.277L110.14 189.417L145.18 169.217L110.22 149.037L75.26 169.277H75.25Z" fill="#E3E3E3"/>
<path d="M73.67 212.147C73.54 212.147 73.41 212.117 73.29 212.047L36.91 191.037C36.68 190.907 36.53 190.657 36.53 190.387C36.53 190.117 36.67 189.877 36.9 189.737L73.36 168.627C73.59 168.497 73.88 168.497 74.11 168.627L110.57 189.677C110.8 189.807 110.95 190.057 110.95 190.327C110.95 190.597 110.81 190.847 110.57 190.977L74.03 212.037C73.91 212.107 73.78 212.137 73.65 212.137L73.67 212.147ZM38.78 190.387L73.67 210.527L108.71 190.327L73.75 170.147L38.79 190.387H38.78Z" fill="#E3E3E3"/>
<path d="M73.67 169.987C73.54 169.987 73.41 169.957 73.29 169.887L36.91 148.877C36.68 148.747 36.53 148.497 36.53 148.227C36.53 147.957 36.67 147.717 36.9 147.577L73.36 126.467C73.59 126.337 73.88 126.337 74.11 126.467L110.57 147.517C110.8 147.647 110.95 147.897 110.95 148.167C110.95 148.437 110.81 148.688 110.57 148.818L74.03 169.877C73.91 169.947 73.78 169.977 73.65 169.977L73.67 169.987ZM38.78 148.227L73.67 168.367L108.71 148.167L73.75 127.987L38.79 148.227H38.78Z" fill="#E3E3E3"/>
<path d="M37.2101 191.097C37.0801 191.097 36.9501 191.067 36.8301 190.997L0.450068 169.987C0.220068 169.858 0.0700684 169.607 0.0700684 169.337C0.0700684 169.067 0.210068 168.827 0.440068 168.687L36.9001 147.577C37.1301 147.447 37.4201 147.447 37.6501 147.577L74.1101 168.627C74.3401 168.757 74.4901 169.007 74.4901 169.277C74.4901 169.547 74.3501 169.797 74.1101 169.927L37.5701 190.987C37.4501 191.057 37.3201 191.087 37.1901 191.087L37.2101 191.097ZM2.33007 169.337L37.2201 189.477L72.2601 169.277L37.3001 149.097L2.33007 169.337Z" fill="#E3E3E3"/>
<path d="M110.14 148.887C110.01 148.887 109.88 148.857 109.76 148.787L73.38 127.777C73.15 127.647 73 127.397 73 127.127C73 126.857 73.14 126.617 73.37 126.477L109.83 105.367C110.06 105.237 110.35 105.237 110.58 105.367L147.04 126.417C147.27 126.547 147.42 126.797 147.42 127.067C147.42 127.337 147.28 127.587 147.04 127.717L110.5 148.777C110.38 148.847 110.25 148.877 110.12 148.877L110.14 148.887ZM75.25 127.127L110.14 147.267L145.18 127.067L110.22 106.887L75.26 127.127H75.25Z" fill="#E3E3E3"/>
<path d="M146.83 127.907C146.7 127.907 146.57 127.877 146.45 127.807L110.07 106.797C109.84 106.667 109.69 106.417 109.69 106.147C109.69 105.877 109.83 105.637 110.06 105.497L146.52 84.3875C146.75 84.2575 147.04 84.2575 147.27 84.3875L183.73 105.437C183.96 105.567 184.11 105.817 184.11 106.087C184.11 106.357 183.97 106.607 183.73 106.737L147.19 127.797C147.07 127.867 146.94 127.897 146.81 127.897L146.83 127.907ZM111.94 106.147L146.83 126.287L181.87 106.087L146.91 85.9075L111.95 106.147H111.94Z" fill="#E3E3E3"/>
<path d="M183.29 106.797C183.16 106.797 183.03 106.767 182.91 106.697L146.53 85.6875C146.3 85.5575 146.15 85.3075 146.15 85.0375C146.15 84.7675 146.29 84.5275 146.52 84.3875L182.98 63.2775C183.21 63.1475 183.5 63.1475 183.73 63.2775L220.19 84.3275C220.42 84.4575 220.57 84.7075 220.57 84.9775C220.57 85.2475 220.43 85.4975 220.19 85.6275L183.65 106.687C183.53 106.757 183.4 106.787 183.27 106.787L183.29 106.797ZM148.4 85.0375L183.29 105.177L218.33 84.9775L183.37 64.7975L148.41 85.0375H148.4Z" fill="#E3E3E3"/>
<path d="M219.83 85.7375C219.7 85.7375 219.57 85.7075 219.45 85.6375L183.07 64.6275C182.84 64.4975 182.69 64.2475 182.69 63.9775C182.69 63.7075 182.83 63.4675 183.06 63.3275L219.52 42.2175C219.75 42.0875 220.04 42.0875 220.27 42.2175L256.73 63.2675C256.96 63.3975 257.11 63.6475 257.11 63.9175C257.11 64.1875 256.97 64.4375 256.73 64.5675L220.19 85.6275C220.07 85.6975 219.94 85.7275 219.81 85.7275L219.83 85.7375ZM184.94 63.9775L219.83 84.1175L254.87 63.9175L219.91 43.7375L184.95 63.9775H184.94Z" fill="#E3E3E3"/>
<path d="M256.37 64.6775C256.24 64.6775 256.11 64.6475 255.99 64.5775L219.61 43.5675C219.38 43.4375 219.23 43.1875 219.23 42.9175C219.23 42.6475 219.37 42.4075 219.6 42.2675L256.06 21.1575C256.29 21.0275 256.58 21.0275 256.81 21.1575L293.27 42.2075C293.5 42.3375 293.65 42.5875 293.65 42.8575C293.65 43.1275 293.51 43.3775 293.27 43.5075L256.73 64.5675C256.61 64.6375 256.48 64.6675 256.35 64.6675L256.37 64.6775ZM221.48 42.9175L256.37 63.0575L291.41 42.8575L256.45 22.6775L221.49 42.9175H221.48Z" fill="#E3E3E3"/>
<path d="M292.9 43.6075C292.77 43.6075 292.64 43.5775 292.52 43.5075L256.14 22.4975C255.91 22.3675 255.76 22.1175 255.76 21.8475C255.76 21.5775 255.9 21.3375 256.13 21.1975L292.61 0.0975C292.84 -0.0325 293.13 -0.0325 293.36 0.0975L329.82 21.1475C330.05 21.2775 330.2 21.5275 330.2 21.7975C330.2 22.0675 330.06 22.3175 329.82 22.4475L293.28 43.5075C293.16 43.5775 293.03 43.6075 292.9 43.6075ZM258.01 21.8475L292.9 41.9875L327.94 21.7875L292.98 1.6175L258.02 21.8575L258.01 21.8475Z" fill="#E3E3E3"/>
<path d="M182.98 233.097C182.85 233.097 182.72 233.067 182.6 232.997L146.22 211.987C145.99 211.858 145.84 211.607 145.84 211.337C145.84 211.067 145.98 210.827 146.21 210.687L182.67 189.577C182.9 189.447 183.19 189.447 183.42 189.577L219.88 210.627C220.11 210.757 220.26 211.007 220.26 211.277C220.26 211.547 220.12 211.797 219.88 211.927L183.34 232.987C183.22 233.057 183.09 233.087 182.96 233.087L182.98 233.097ZM148.09 211.337L182.98 231.477L218.02 211.277L183.06 191.097L148.1 211.337H148.09Z" fill="#E3E3E3"/>
<path d="M219.6 212.077C219.47 212.077 219.34 212.047 219.22 211.977L182.84 190.967C182.61 190.837 182.46 190.588 182.46 190.318C182.46 190.048 182.6 189.807 182.83 189.667L219.29 168.557C219.52 168.427 219.81 168.427 220.04 168.557L256.5 189.607C256.73 189.737 256.88 189.987 256.88 190.257C256.88 190.527 256.74 190.777 256.5 190.907L219.96 211.967C219.84 212.037 219.71 212.068 219.58 212.068L219.6 212.077ZM184.71 190.318L219.6 210.458L254.64 190.257L219.68 170.077L184.72 190.318H184.71Z" fill="#E3E3E3"/>
<path d="M256.13 191.017C256 191.017 255.87 190.987 255.75 190.917L219.37 169.907C219.14 169.777 218.99 169.527 218.99 169.257C218.99 168.987 219.13 168.747 219.36 168.607L255.82 147.497C256.05 147.367 256.34 147.367 256.57 147.497L293.03 168.547C293.26 168.677 293.41 168.927 293.41 169.197C293.41 169.467 293.27 169.718 293.03 169.847L256.49 190.907C256.37 190.977 256.24 191.007 256.11 191.007L256.13 191.017ZM221.24 169.257L256.13 189.397L291.17 169.197L256.21 149.017L221.25 169.257H221.24Z" fill="#E3E3E3"/>
<path d="M292.75 169.998C292.62 169.998 292.49 169.967 292.37 169.897L255.99 148.888C255.76 148.758 255.61 148.508 255.61 148.238C255.61 147.968 255.75 147.727 255.98 147.587L292.44 126.478C292.67 126.348 292.96 126.348 293.19 126.478L329.65 147.528C329.88 147.657 330.03 147.907 330.03 148.177C330.03 148.447 329.89 148.698 329.65 148.828L293.11 169.888C292.99 169.958 292.86 169.988 292.73 169.988L292.75 169.998ZM257.86 148.238L292.75 168.378L327.79 148.177L292.83 127.998L257.87 148.238H257.86Z" fill="#E3E3E3"/>
<path d="M401.82 359.448C401.69 359.448 401.56 359.417 401.44 359.347L365.06 338.337C364.83 338.207 364.68 337.957 364.68 337.687C364.68 337.417 364.82 337.178 365.05 337.038L401.51 315.927C401.74 315.797 402.03 315.797 402.26 315.927L438.72 336.978C438.95 337.108 439.1 337.357 439.1 337.627C439.1 337.897 438.96 338.147 438.72 338.277L402.18 359.337C402.06 359.407 401.93 359.437 401.8 359.437L401.82 359.448ZM366.93 337.687L401.82 357.827L436.86 337.627L401.9 317.448L366.94 337.687H366.93Z" fill="#E3E3E3"/>
<path d="M365.29 380.508C365.16 380.508 365.03 380.477 364.91 380.407L328.53 359.397C328.3 359.267 328.15 359.017 328.15 358.747C328.15 358.477 328.29 358.237 328.52 358.097L364.98 336.987C365.21 336.857 365.5 336.857 365.73 336.987L402.19 358.038C402.42 358.168 402.57 358.417 402.57 358.687C402.57 358.957 402.43 359.207 402.19 359.337L365.65 380.397C365.53 380.467 365.4 380.497 365.27 380.497L365.29 380.508ZM330.4 358.747L365.29 378.888L400.33 358.687L365.37 338.508L330.41 358.747H330.4Z" fill="#E3E3E3"/>
<path d="M131.18 249.497L52.4701 294.337L0.100098 264.318L79.3501 218.477L131.18 249.497Z" fill="url(#paint0_linear_25_318)"/>
<path d="M275.16 252.257L268.93 253.708L250.86 243.647C250.13 243.237 249.23 243.247 248.51 243.667L205.47 268.457L190.76 271.878V277.837C190.76 278.377 191.02 278.927 191.56 279.237L214.72 292.528C215.46 292.947 216.37 292.947 217.1 292.528L274.37 259.508C274.9 259.208 275.16 258.678 275.16 258.138V252.268V252.257Z" fill="white"/>
<path d="M215.9 293.577C215.36 293.577 214.82 293.438 214.34 293.168L191.18 279.878C190.46 279.458 190.02 278.727 190.01 277.897C190.01 277.877 190.01 277.857 190.01 277.827V271.867C190.01 271.517 190.25 271.218 190.59 271.138L205.2 267.747L248.14 243.007C249.09 242.457 250.27 242.448 251.23 242.988L269.04 252.907L274.99 251.527C275.21 251.477 275.45 251.527 275.63 251.667C275.81 251.807 275.91 252.027 275.91 252.257V258.128C275.91 258.128 275.91 258.187 275.91 258.217C275.88 259.027 275.44 259.747 274.74 260.147L217.47 293.168C216.99 293.448 216.44 293.587 215.9 293.587V293.577ZM191.5 277.758C191.5 277.758 191.5 277.807 191.5 277.837C191.5 277.987 191.53 278.357 191.92 278.577L215.08 291.867C215.59 292.157 216.21 292.157 216.72 291.867L273.99 258.848C274.37 258.628 274.41 258.268 274.41 258.128C274.41 258.108 274.41 258.088 274.41 258.068V253.208L269.1 254.447C268.92 254.487 268.73 254.467 268.56 254.367L250.49 244.307C249.99 244.027 249.37 244.028 248.87 244.318L205.83 269.107C205.77 269.147 205.7 269.167 205.63 269.187L191.5 272.478V277.777V277.758Z" fill="#1E1D1C"/>
<path d="M130.86 113.417L59.4299 71.7275L150.57 19.1075L209.15 52.7575L130.86 113.417Z" fill="url(#paint1_linear_25_318)"/>
<path d="M337.61 179.617L320.08 211.287V216.287L384.4 206.628L402.05 169.188V164.188L337.61 179.617Z" fill="white"/>
<path d="M320.08 217.037C319.9 217.037 319.73 216.978 319.59 216.858C319.42 216.718 319.33 216.507 319.33 216.287V211.287C319.33 211.157 319.36 211.037 319.42 210.927L336.95 179.257C337.05 179.077 337.23 178.938 337.43 178.888L401.88 163.458C402.1 163.408 402.34 163.458 402.52 163.598C402.7 163.738 402.81 163.958 402.81 164.188V169.188C402.81 169.298 402.79 169.407 402.74 169.507L385.08 206.947C384.97 207.177 384.76 207.327 384.51 207.367L320.19 217.028C320.19 217.028 320.12 217.028 320.08 217.028V217.037ZM320.83 211.477V215.417L383.89 205.947L401.3 169.028V165.147L338.1 180.278L320.83 211.488V211.477Z" fill="#1E1D1C"/>
<path d="M217.14 185.367L178.18 162.917C175.71 161.487 172.66 161.497 170.19 162.917L85.6701 211.717L68.5601 215.147V223.617H68.5801C68.4801 225.057 69.1301 226.547 70.5601 227.367L115.37 253.188C117.84 254.618 120.89 254.607 123.36 253.188L222.99 195.667C224.29 194.917 224.95 193.617 224.98 192.307V183.787L217.12 185.357L217.14 185.367Z" fill="white"/>
<path d="M119.37 255.007C117.86 255.007 116.35 254.617 115 253.837L70.1901 228.018C68.6601 227.138 67.7601 225.507 67.8201 223.738C67.8201 223.698 67.8101 223.657 67.8101 223.617V215.147C67.8101 214.787 68.0601 214.478 68.4101 214.408L85.4001 211.007L169.81 162.268C172.51 160.708 175.86 160.708 178.55 162.268L217.26 184.578L224.84 183.057C225.06 183.017 225.29 183.068 225.46 183.218C225.63 183.358 225.73 183.578 225.73 183.798V192.318C225.73 192.318 225.73 192.407 225.72 192.447C225.64 194.067 224.76 195.517 223.36 196.327L123.73 253.848C122.38 254.628 120.87 255.018 119.36 255.018L119.37 255.007ZM69.3101 223.458C69.3301 223.528 69.3301 223.597 69.3301 223.667C69.2401 224.927 69.8601 226.097 70.9401 226.717L115.75 252.537C117.99 253.827 120.76 253.827 123 252.537L222.63 195.018C223.61 194.448 224.22 193.427 224.25 192.287C224.25 192.257 224.25 192.238 224.25 192.208V184.708L217.29 186.098C217.11 186.138 216.93 186.097 216.77 186.007L177.81 163.557C175.58 162.267 172.8 162.267 170.56 163.557L86.0401 212.357C85.9701 212.397 85.8901 212.427 85.8101 212.447L69.3001 215.757V223.458H69.3101Z" fill="#1E1D1C"/>
<path d="M337.61 174.617L320.08 211.287L384.4 201.628L402.05 164.188L337.61 174.617Z" fill="#1E1D1C"/>
<path d="M320.08 212.037C319.84 212.037 319.62 211.927 319.48 211.737C319.31 211.517 319.29 211.217 319.41 210.967L336.94 174.297C337.05 174.077 337.25 173.917 337.5 173.877L401.95 163.447C402.23 163.407 402.5 163.517 402.67 163.737C402.84 163.957 402.87 164.257 402.75 164.507L385.09 201.947C384.98 202.177 384.77 202.327 384.52 202.367L320.2 212.027C320.2 212.027 320.13 212.027 320.09 212.027L320.08 212.037ZM338.12 175.287L321.37 210.327L383.9 200.937L400.78 165.147L338.12 175.287Z" fill="#1E1D1C"/>
<path d="M86.8799 323.427L69.3499 360.098L133.67 350.438L151.33 312.997L86.8799 323.427Z" fill="#1E1D1C"/>
<path d="M69.3499 360.848C69.1099 360.848 68.8899 360.737 68.7499 360.547C68.5799 360.327 68.5599 360.028 68.6799 359.778L86.2099 323.107C86.3199 322.887 86.5199 322.728 86.7699 322.688L151.22 312.258C151.49 312.218 151.77 312.327 151.94 312.547C152.11 312.767 152.14 313.068 152.02 313.318L134.36 350.758C134.25 350.988 134.04 351.138 133.79 351.178L69.4699 360.838C69.4699 360.838 69.3999 360.838 69.3599 360.838L69.3499 360.848ZM87.3899 324.098L70.6399 359.138L133.17 349.737L150.05 313.948L87.3899 324.088V324.098Z" fill="#1E1D1C"/>
<path d="M70.5701 219.367L115.38 245.188C117.85 246.618 120.9 246.607 123.37 245.188L223 187.667C225.67 186.127 225.67 182.278 223 180.738L178.19 154.917C175.72 153.487 172.67 153.497 170.2 154.917L70.5701 212.437C67.9001 213.977 67.9001 217.827 70.5701 219.367Z" fill="#1E1D1C"/>
<path d="M119.37 247.007C117.86 247.007 116.35 246.617 115 245.837L70.1901 220.018C68.7001 219.158 67.8101 217.628 67.8101 215.908C67.8101 214.188 68.7001 212.647 70.1901 211.787L169.82 154.268C172.52 152.708 175.87 152.708 178.56 154.268L223.37 180.087C224.86 180.947 225.75 182.487 225.75 184.197C225.75 185.917 224.86 187.458 223.37 188.318L123.74 245.837C122.39 246.617 120.88 247.007 119.37 247.007ZM174.19 154.598C172.94 154.598 171.68 154.918 170.56 155.568L70.9301 213.087C69.9101 213.677 69.3101 214.728 69.3101 215.908C69.3101 217.077 69.9201 218.137 70.9401 218.717L115.75 244.537C117.99 245.827 120.76 245.827 123 244.537L222.63 187.018C223.65 186.428 224.25 185.377 224.25 184.197C224.25 183.017 223.64 181.968 222.62 181.378L177.81 155.557C176.69 154.917 175.44 154.598 174.19 154.598Z" fill="#1E1D1C"/>
<path d="M436.86 57.2975L397.9 34.8475C395.43 33.4175 392.38 33.4275 389.91 34.8475L305.39 83.6475L288.28 87.0775V95.5475H288.3C288.2 96.9875 288.85 98.4775 290.28 99.2975L335.09 125.118C337.56 126.548 340.61 126.538 343.08 125.118L442.71 67.5975C444.01 66.8475 444.67 65.5475 444.7 64.2375V55.7175L436.84 57.2875L436.86 57.2975Z" fill="#1E1D1C"/>
<path d="M339.09 126.938C337.58 126.938 336.07 126.547 334.72 125.767L289.91 99.9475C288.38 99.0675 287.48 97.4375 287.54 95.6675C287.54 95.6275 287.53 95.5875 287.53 95.5475V87.0775C287.53 86.7175 287.78 86.4075 288.13 86.3375L305.12 82.9375L389.53 34.1975C392.23 32.6375 395.58 32.6375 398.27 34.1975L436.98 56.5075L444.56 54.9875C444.78 54.9375 445.01 54.9975 445.18 55.1475C445.35 55.2875 445.45 55.5075 445.45 55.7275V64.2475C445.45 64.2475 445.45 64.3375 445.44 64.3775C445.36 65.9975 444.48 67.4475 443.08 68.2575L343.45 125.777C342.1 126.557 340.59 126.947 339.08 126.947L339.09 126.938ZM289.03 95.3875C289.05 95.4575 289.05 95.5275 289.05 95.5975C288.96 96.8575 289.58 98.0275 290.66 98.6475L335.47 124.467C337.71 125.757 340.48 125.757 342.72 124.467L442.35 66.9475C443.33 66.3775 443.94 65.3575 443.97 64.2175C443.97 64.1875 443.97 64.1675 443.97 64.1375V56.6375L437.01 58.0275C436.83 58.0675 436.64 58.0275 436.49 57.9375L397.53 35.4875C395.29 34.1975 392.52 34.1975 390.28 35.4875L305.76 84.2875C305.69 84.3275 305.61 84.3575 305.53 84.3775L289.02 87.6875V95.3875H289.03Z" fill="#1E1D1C"/>
<path d="M290.28 91.2975L335.09 117.118C337.56 118.548 340.61 118.537 343.08 117.118L442.71 59.5975C445.38 58.0575 445.38 54.2075 442.71 52.6675L397.9 26.8475C395.43 25.4175 392.38 25.4275 389.91 26.8475L290.28 84.3675C287.61 85.9075 287.61 89.7575 290.28 91.2975Z" fill="white"/>
<path d="M339.09 118.938C337.58 118.938 336.07 118.547 334.72 117.767L289.91 91.9475C288.42 91.0875 287.53 89.5575 287.53 87.8375C287.53 86.1175 288.42 84.5775 289.9 83.7175L389.53 26.1975C392.23 24.6375 395.58 24.6375 398.27 26.1975L443.08 52.0175C444.57 52.8775 445.46 54.4175 445.46 56.1275C445.46 57.8475 444.57 59.3875 443.08 60.2475L343.45 117.767C342.1 118.547 340.59 118.938 339.08 118.938H339.09ZM393.91 26.5275C392.66 26.5275 391.4 26.8475 390.29 27.4975L290.66 85.0175C289.64 85.6075 289.04 86.6575 289.04 87.8375C289.04 89.0075 289.65 90.0675 290.67 90.6475L335.48 116.467C337.72 117.757 340.49 117.757 342.73 116.467L442.36 58.9475C443.38 58.3575 443.98 57.3075 443.98 56.1275C443.98 54.9575 443.37 53.8975 442.35 53.3075L397.54 27.4875C396.42 26.8475 395.17 26.5275 393.92 26.5275H393.91Z" fill="#1E1D1C"/>
<path d="M320.25 298.158L359.29 320.658C361.45 321.898 364.1 321.898 366.26 320.658L453.07 270.538C455.39 269.198 455.39 265.838 453.07 264.498L414.03 241.998C411.87 240.758 409.22 240.758 407.06 241.998L320.25 292.118C317.93 293.458 317.93 296.818 320.25 298.158Z" fill="#E3E3E3"/>
<path d="M362.77 322.337C361.44 322.337 360.1 321.997 358.91 321.307L319.87 298.807C318.54 298.048 317.75 296.668 317.75 295.138C317.75 293.608 318.54 292.238 319.87 291.468L406.68 241.348C409.06 239.978 412.01 239.968 414.4 241.348L453.44 263.848C454.77 264.608 455.56 265.987 455.56 267.517C455.56 269.047 454.77 270.418 453.44 271.188L366.63 321.307C365.44 321.997 364.1 322.337 362.77 322.337ZM320.62 297.508L359.66 320.008C361.58 321.108 363.96 321.108 365.88 320.008L452.69 269.888C453.55 269.388 454.06 268.507 454.06 267.517C454.06 266.527 453.55 265.637 452.69 265.147L413.65 242.647C411.73 241.547 409.35 241.547 407.43 242.647L320.62 292.767C319.76 293.257 319.25 294.148 319.25 295.138C319.25 296.128 319.76 297.018 320.62 297.508Z" fill="#E3E3E3"/>
<path d="M199.34 167.837C199.08 167.837 198.82 167.698 198.69 167.458C198.49 167.098 198.61 166.637 198.98 166.437L241.01 142.787C241.37 142.587 241.83 142.717 242.03 143.077C242.23 143.437 242.11 143.898 241.74 144.098L199.71 167.747C199.59 167.817 199.47 167.848 199.34 167.848V167.837Z" fill="#1E1D1C"/>
<path d="M235.31 141.397L244.67 146.787L247.43 139.677L235.31 141.397Z" fill="#1E1D1C"/>
<path d="M258.71 251.837C258.45 251.837 258.19 251.698 258.06 251.458C257.86 251.098 257.98 250.637 258.35 250.437L307.68 222.677C308.04 222.477 308.5 222.607 308.7 222.967C308.9 223.327 308.78 223.788 308.41 223.988L259.08 251.747C258.96 251.817 258.84 251.848 258.71 251.848V251.837Z" fill="#1E1D1C"/>
<path d="M300.74 222.378L310.1 227.757L312.85 220.647L300.74 222.378Z" fill="#1E1D1C"/>
<path d="M151.33 313.748C151.07 313.748 150.81 313.607 150.68 313.367C150.48 313.007 150.6 312.548 150.97 312.348L188.34 291.318C188.7 291.118 189.16 291.247 189.36 291.607C189.56 291.967 189.44 292.428 189.07 292.628L151.7 313.658C151.58 313.728 151.46 313.758 151.33 313.758V313.748Z" fill="#1E1D1C"/>
<path d="M182.64 289.938L192 295.318L194.75 288.207L182.64 289.938Z" fill="#1E1D1C"/>
<path d="M238.36 356.878L247.72 362.267L250.47 355.158L238.36 356.878Z" fill="#1E1D1C"/>
<path d="M345.39 53.1075C345.26 53.1075 345.13 53.0775 345.02 53.0075L309.27 32.3675C308.91 32.1575 308.79 31.6975 309 31.3475C309.21 30.9875 309.67 30.8675 310.02 31.0775L345.77 51.7175C346.13 51.9275 346.25 52.3875 346.04 52.7375C345.9 52.9775 345.65 53.1175 345.39 53.1175V53.1075Z" fill="#1E1D1C"/>
<path d="M317.14 30.7075L307.78 36.0975L305.02 28.9875L317.14 30.7075Z" fill="#1E1D1C"/>
<path d="M312.92 154.497L316.26 161.757L303.79 159.897L312.92 154.497Z" fill="#1A1918"/>
<path d="M310.58 159.348C310.45 159.348 310.32 159.317 310.21 159.247L216.31 105.038C215.95 104.828 215.83 104.367 216.04 104.017C216.25 103.657 216.71 103.537 217.06 103.747L310.96 157.958C311.32 158.168 311.44 158.627 311.23 158.977C311.09 159.217 310.84 159.357 310.58 159.357V159.348Z" fill="#1E1D1C"/>
<path d="M196.29 387.337C196.16 387.337 196.03 387.307 195.91 387.237L133.29 351.077C132.93 350.867 132.81 350.407 133.02 350.057C133.23 349.697 133.68 349.578 134.04 349.788L196.29 385.728L244.04 358.188C244.4 357.978 244.86 358.107 245.06 358.457C245.27 358.817 245.14 359.278 244.79 359.478L196.67 387.237C196.55 387.307 196.42 387.337 196.29 387.337Z" fill="#1E1D1C"/>
<path d="M255.88 73.2975L247.72 74.5775L209.28 52.2375C206.8 50.7975 203.74 50.7975 201.26 52.2275L130.87 92.8675L117.82 94.9075V102.288H117.85C117.7 103.768 118.35 105.328 119.82 106.178L164.59 132.028C167.07 133.458 170.11 133.458 172.59 132.028L253.89 85.0875C255.24 84.3075 255.91 82.9275 255.89 81.5575V73.2975H255.88Z" fill="white"/>
<path d="M168.58 133.838C167.07 133.838 165.55 133.448 164.2 132.668L119.44 106.818C117.86 105.908 116.96 104.228 117.08 102.418C117.08 102.378 117.07 102.328 117.07 102.288V94.9075C117.07 94.5375 117.34 94.2275 117.7 94.1675L130.62 92.1475L200.89 51.5775C203.6 50.0175 206.96 50.0175 209.66 51.5875L247.87 73.7875L255.77 72.5475C255.99 72.5075 256.21 72.5775 256.37 72.7175C256.54 72.8575 256.63 73.0675 256.63 73.2875V81.5475C256.63 81.5475 256.63 81.5975 256.63 81.6275C256.63 83.3375 255.74 84.8675 254.26 85.7275L172.96 132.668C171.61 133.448 170.1 133.838 168.58 133.838ZM118.57 102.108C118.59 102.188 118.6 102.278 118.59 102.368C118.45 103.668 119.07 104.878 120.19 105.528L164.95 131.378C167.19 132.668 169.96 132.668 172.2 131.378L253.5 84.4375C254.53 83.8375 255.14 82.7675 255.12 81.5675C255.12 81.5375 255.12 81.4975 255.12 81.4675V74.1675L247.82 75.3075C247.65 75.3275 247.48 75.3075 247.33 75.2175L208.89 52.8775C206.65 51.5775 203.86 51.5775 201.62 52.8775L131.23 93.5175C131.15 93.5675 131.06 93.5975 130.97 93.6075L118.55 95.5475V102.108H118.57Z" fill="#1E1D1C"/>
<path d="M119.82 98.1775L164.59 124.028C167.07 125.458 170.11 125.458 172.59 124.028L253.89 77.0875C256.55 75.5475 256.56 71.7075 253.89 70.1675L209.28 44.2475C206.8 42.8075 203.74 42.8075 201.26 44.2375L119.82 91.2575C117.15 92.7975 117.15 96.6475 119.82 98.1875V98.1775Z" fill="#1E1D1C"/>
<path d="M168.58 125.838C167.07 125.838 165.55 125.448 164.2 124.668L119.44 98.8175C117.95 97.9575 117.06 96.4175 117.06 94.7075C117.06 92.9975 117.95 91.4575 119.44 90.5975L200.88 43.5775C203.59 42.0175 206.95 42.0175 209.65 43.5875L254.26 69.5075C255.74 70.3675 256.63 71.9075 256.62 73.6175C256.62 75.3275 255.73 76.8675 254.24 77.7275L172.94 124.668C171.59 125.448 170.08 125.838 168.56 125.838H168.58ZM205.26 43.9075C204.01 43.9075 202.75 44.2275 201.64 44.8775L120.2 91.8975C119.18 92.4875 118.58 93.5375 118.58 94.7075C118.58 95.8775 119.19 96.9375 120.2 97.5175L164.96 123.368C167.2 124.658 169.97 124.658 172.21 123.368L253.51 76.4275C254.53 75.8375 255.13 74.7875 255.13 73.6175C255.13 72.4475 254.53 71.3875 253.51 70.7975L208.9 44.8775C207.78 44.2275 206.52 43.8975 205.26 43.8975V43.9075Z" fill="#1E1D1C"/>
<path d="M191.55 273.228L214.71 286.517C215.45 286.937 216.36 286.937 217.09 286.517L274.36 253.498C275.43 252.878 275.42 251.327 274.34 250.727L250.86 237.647C250.13 237.237 249.23 237.247 248.5 237.667L191.55 270.478C190.49 271.088 190.49 272.627 191.55 273.237V273.228Z" fill="#E3E3E3"/>
<path d="M215.9 287.577C215.36 287.577 214.82 287.438 214.34 287.168L191.18 273.878C190.44 273.458 190 272.698 190 271.848C190 270.998 190.44 270.238 191.17 269.818L248.12 237.007C249.07 236.457 250.25 236.448 251.21 236.988L274.69 250.068C275.44 250.488 275.89 251.238 275.89 252.098C275.89 252.948 275.46 253.717 274.72 254.147L217.45 287.168C216.97 287.448 216.42 287.587 215.88 287.587L215.9 287.577ZM191.92 272.577L215.08 285.867C215.59 286.157 216.21 286.157 216.72 285.867L273.99 252.848C274.37 252.628 274.41 252.257 274.41 252.107C274.41 251.957 274.37 251.598 273.98 251.378L250.5 238.297C250 238.017 249.38 238.017 248.88 238.307L191.93 271.117C191.55 271.337 191.51 271.698 191.51 271.848C191.51 271.998 191.55 272.357 191.93 272.577H191.92Z" fill="#1E1D1C"/>
<path d="M328.82 317.457L322.59 318.907L304.52 308.847C303.79 308.437 302.89 308.447 302.17 308.867L259.13 333.657L244.42 337.077V343.038C244.42 343.578 244.68 344.127 245.22 344.437L268.38 357.728C269.12 358.148 270.03 358.148 270.76 357.728L328.03 324.707C328.56 324.407 328.82 323.877 328.82 323.337V317.467V317.457Z" fill="white"/>
<path d="M269.56 358.787C269.02 358.787 268.48 358.647 268 358.377L244.84 345.087C244.12 344.677 243.68 343.937 243.67 343.107C243.67 343.087 243.67 343.057 243.67 343.037V337.077C243.67 336.727 243.91 336.427 244.25 336.347L258.86 332.957L301.8 308.217C302.75 307.667 303.94 307.667 304.89 308.197L322.7 318.117L328.65 316.737C328.87 316.687 329.11 316.737 329.29 316.877C329.47 317.017 329.57 317.237 329.57 317.467V323.337C329.57 323.337 329.57 323.397 329.57 323.427C329.54 324.237 329.1 324.947 328.4 325.357L271.13 358.377C270.65 358.657 270.1 358.797 269.56 358.797V358.787ZM245.16 342.967C245.16 342.967 245.16 343.017 245.16 343.047C245.16 343.197 245.2 343.567 245.58 343.787L268.74 357.077C269.24 357.367 269.87 357.367 270.37 357.077L327.64 324.057C328.01 323.837 328.06 323.477 328.06 323.337C328.06 323.317 328.06 323.297 328.06 323.277V318.418L322.75 319.647C322.57 319.687 322.38 319.667 322.21 319.567L304.14 309.507C303.64 309.227 303.02 309.227 302.52 309.517L259.48 334.307C259.42 334.347 259.35 334.368 259.28 334.388L245.15 337.668V342.967H245.16Z" fill="#1E1D1C"/>
<path d="M245.22 338.438L268.38 351.728C269.12 352.148 270.03 352.148 270.76 351.728L328.03 318.708C329.1 318.088 329.09 316.538 328.01 315.938L304.53 302.857C303.8 302.447 302.9 302.458 302.17 302.878L245.22 335.688C244.16 336.298 244.16 337.838 245.22 338.448V338.438Z" fill="#1E1D1C"/>
<path d="M269.57 352.787C269.03 352.787 268.49 352.647 268.01 352.367L244.85 339.077C244.11 338.657 243.67 337.897 243.67 337.047C243.67 336.197 244.11 335.437 244.84 335.017L301.8 302.207C302.75 301.657 303.94 301.657 304.89 302.187L328.37 315.267C329.12 315.687 329.57 316.437 329.57 317.297C329.57 318.147 329.14 318.917 328.4 319.347L271.13 352.367C270.65 352.647 270.1 352.787 269.56 352.787H269.57ZM303.36 303.297C303.08 303.297 302.79 303.367 302.54 303.517L245.58 336.327C245.2 336.547 245.16 336.907 245.16 337.057C245.16 337.207 245.2 337.567 245.58 337.787L268.74 351.077C269.24 351.367 269.87 351.367 270.37 351.077L327.64 318.057C328.02 317.837 328.06 317.467 328.06 317.317C328.06 317.167 328.02 316.807 327.63 316.587L304.15 303.507C303.9 303.367 303.63 303.297 303.35 303.297H303.36Z" fill="#1E1D1C"/>
<path d="M128.5 201.257L143.46 209.727C144.49 210.317 145.81 209.847 146.24 208.737L150.49 197.757C150.88 196.747 150.04 195.687 148.97 195.837L128.99 198.687C127.68 198.877 127.36 200.607 128.5 201.257Z" fill="white"/>
<path d="M143.45 192.537L158.41 201.007C159.44 201.597 160.76 201.127 161.19 200.017L165.44 189.037C165.83 188.027 164.99 186.967 163.92 187.117L143.94 189.967C142.63 190.157 142.31 191.887 143.45 192.537Z" fill="white"/>
<path d="M384.78 392.138C384.65 392.138 384.52 392.108 384.4 392.038L383.1 391.288C382.74 391.078 382.62 390.618 382.83 390.258C383.04 389.898 383.5 389.777 383.86 389.987L385.16 390.737C385.52 390.947 385.64 391.407 385.43 391.767C385.29 392.007 385.04 392.138 384.78 392.138ZM379.16 388.867C379.03 388.867 378.9 388.837 378.78 388.767L377.48 388.017C377.12 387.807 377 387.347 377.21 386.987C377.42 386.627 377.88 386.508 378.24 386.718L379.54 387.468C379.9 387.678 380.02 388.138 379.81 388.498C379.67 388.738 379.42 388.867 379.16 388.867ZM373.54 385.598C373.41 385.598 373.28 385.568 373.16 385.498L371.86 384.748C371.5 384.538 371.38 384.078 371.59 383.718C371.8 383.358 372.26 383.238 372.62 383.448L373.92 384.198C374.28 384.408 374.4 384.868 374.19 385.228C374.05 385.468 373.8 385.598 373.54 385.598ZM367.92 382.327C367.79 382.327 367.66 382.298 367.54 382.228L366.24 381.478C365.88 381.268 365.76 380.808 365.97 380.448C366.18 380.088 366.64 379.967 367 380.177L368.3 380.927C368.66 381.137 368.78 381.597 368.57 381.957C368.43 382.197 368.18 382.327 367.92 382.327ZM362.3 379.057C362.17 379.057 362.04 379.027 361.92 378.957L360.62 378.207C360.26 377.997 360.14 377.537 360.35 377.177C360.56 376.817 361.02 376.698 361.38 376.908L362.68 377.658C363.04 377.868 363.16 378.328 362.95 378.688C362.81 378.928 362.56 379.057 362.3 379.057ZM356.68 375.788C356.55 375.788 356.42 375.758 356.3 375.688L355 374.938C354.64 374.728 354.52 374.268 354.73 373.908C354.94 373.548 355.4 373.428 355.76 373.638L357.06 374.388C357.42 374.598 357.54 375.058 357.33 375.418C357.19 375.658 356.94 375.788 356.68 375.788ZM351.06 372.517C350.93 372.517 350.8 372.488 350.68 372.418L349.38 371.668C349.02 371.458 348.9 370.998 349.11 370.638C349.32 370.278 349.78 370.157 350.14 370.367L351.44 371.117C351.8 371.327 351.92 371.787 351.71 372.147C351.57 372.387 351.32 372.517 351.06 372.517ZM345.44 369.248C345.31 369.248 345.18 369.217 345.06 369.147L343.76 368.397C343.4 368.187 343.28 367.727 343.49 367.367C343.7 367.007 344.16 366.888 344.52 367.098L345.82 367.848C346.18 368.058 346.3 368.518 346.09 368.878C345.95 369.118 345.7 369.248 345.44 369.248ZM339.82 365.978C339.69 365.978 339.56 365.948 339.44 365.878L338.14 365.128C337.78 364.918 337.66 364.458 337.87 364.098C338.08 363.738 338.54 363.617 338.9 363.827L340.2 364.577C340.56 364.787 340.68 365.247 340.47 365.607C340.33 365.847 340.08 365.978 339.82 365.978ZM334.2 362.707C334.07 362.707 333.94 362.677 333.82 362.607L332.52 361.857C332.16 361.647 332.04 361.187 332.25 360.827C332.46 360.467 332.92 360.347 333.28 360.557L334.58 361.307C334.94 361.517 335.06 361.977 334.85 362.337C334.71 362.577 334.46 362.707 334.2 362.707ZM328.58 359.438C328.45 359.438 328.32 359.407 328.2 359.337L326.9 358.587C326.54 358.377 326.42 357.917 326.63 357.557C326.84 357.197 327.3 357.078 327.66 357.288L328.96 358.038C329.32 358.248 329.44 358.708 329.23 359.068C329.09 359.308 328.84 359.438 328.58 359.438ZM322.96 356.168C322.83 356.168 322.7 356.138 322.58 356.068L321.28 355.318C320.92 355.108 320.8 354.648 321.01 354.288C321.22 353.928 321.68 353.807 322.04 354.017L323.34 354.767C323.7 354.977 323.82 355.437 323.61 355.797C323.47 356.037 323.22 356.168 322.96 356.168ZM317.34 352.897C317.21 352.897 317.08 352.867 316.96 352.797L315.66 352.047C315.3 351.837 315.18 351.377 315.39 351.017C315.6 350.657 316.06 350.538 316.42 350.748L317.72 351.498C318.08 351.708 318.2 352.168 317.99 352.528C317.85 352.767 317.6 352.897 317.34 352.897ZM311.72 349.628C311.59 349.628 311.46 349.597 311.34 349.528L310.04 348.778C309.68 348.568 309.56 348.108 309.77 347.748C309.98 347.388 310.44 347.268 310.8 347.478L312.1 348.228C312.46 348.438 312.58 348.898 312.37 349.258C312.23 349.498 311.98 349.628 311.72 349.628ZM306.1 346.357C305.97 346.357 305.84 346.328 305.72 346.258L304.42 345.508C304.06 345.298 303.94 344.838 304.15 344.478C304.36 344.118 304.82 343.997 305.18 344.207L306.48 344.957C306.84 345.167 306.96 345.627 306.75 345.987C306.61 346.227 306.36 346.357 306.1 346.357ZM300.48 343.087C300.35 343.087 300.22 343.057 300.1 342.987L298.8 342.237C298.44 342.027 298.32 341.567 298.53 341.207C298.74 340.847 299.2 340.728 299.56 340.938L300.86 341.688C301.22 341.898 301.34 342.358 301.13 342.718C300.99 342.958 300.74 343.087 300.48 343.087Z" fill="#1E1D1C"/>
<path d="M392.48 390.397L395.82 397.647L383.35 395.788L392.48 390.397Z" fill="#1A1918"/>
<path d="M348.23 189.568L355.14 196.128L356.39 195.408L349.51 188.827L348.23 189.568Z" fill="white"/>
<path d="M344.68 191.617C344.21 191.887 343.9 192.168 343.76 192.438C343.62 192.717 343.62 192.957 343.76 193.177C343.91 193.397 344.26 193.667 344.79 193.977L345.27 194.257L344.33 194.807L345.66 195.577L346.6 195.027L351.65 197.967L353.35 196.988L348.3 194.048L349.57 193.318L348.24 192.548L346.97 193.277L346.52 193.018C346.19 192.828 346.03 192.667 346.02 192.537C346.02 192.407 346.13 192.277 346.38 192.137C346.63 191.997 346.92 191.858 347.26 191.738L346.31 190.917C345.7 191.097 345.15 191.337 344.67 191.617H344.68Z" fill="white"/>
<path d="M338.86 195.147L347.67 200.268L349.46 199.227L340.65 194.117L338.86 195.147Z" fill="white"/>
<path d="M350.85 188.227L359.66 193.348L366.41 189.447L364.92 188.587L359.97 191.447L357.57 190.048L362.02 187.488L360.54 186.617L356.09 189.188L354.14 188.057L358.92 185.298L357.43 184.427L350.85 188.227Z" fill="white"/>
<path d="M359.41 183.277L368.22 188.397L369.92 187.417L361.11 182.298L359.41 183.277Z" fill="white"/>
<path d="M375.1 176.867C376.06 176.317 377.13 176.067 378.3 176.107C379.48 176.157 380.71 176.557 381.98 177.327L377.72 179.787C378.23 180.077 378.76 180.217 379.29 180.227C379.84 180.227 380.3 180.128 380.69 179.908C380.96 179.758 381.1 179.587 381.15 179.397C381.18 179.207 381.09 178.997 380.86 178.757L382.84 177.947C383.24 178.427 383.36 178.907 383.22 179.357C383.07 179.817 382.65 180.248 381.94 180.658C380.82 181.308 379.63 181.568 378.37 181.458C377.37 181.368 376.42 181.057 375.53 180.548C374.47 179.928 373.92 179.288 373.88 178.628C373.84 177.958 374.24 177.377 375.09 176.887L375.1 176.867ZM379.25 177.697C378.75 177.417 378.25 177.278 377.75 177.268C377.25 177.268 376.83 177.357 376.48 177.557C376.11 177.767 375.94 178.028 375.96 178.318C375.98 178.618 376.23 178.898 376.7 179.158L379.24 177.687" fill="white"/>
<path d="M367.79 181.087C366.87 181.617 366.38 182.128 366.31 182.598C366.25 183.078 366.5 183.467 367.05 183.787C367.66 184.147 368.4 184.277 369.24 184.187C369.86 184.117 371 183.777 372.67 183.157C373.03 183.027 373.3 182.958 373.46 182.958C373.62 182.958 373.77 182.997 373.89 183.077C374.08 183.187 374.16 183.317 374.12 183.467C374.06 183.687 373.81 183.927 373.36 184.177C372.96 184.407 372.57 184.538 372.18 184.568C371.79 184.598 371.39 184.537 370.99 184.387L369.54 185.517C370.3 185.778 371.11 185.867 371.98 185.777C372.84 185.687 373.71 185.387 374.58 184.887C375.55 184.327 376.06 183.787 376.13 183.257C376.2 182.727 375.94 182.298 375.36 181.958C374.82 181.648 374.22 181.507 373.57 181.537C372.92 181.567 372.03 181.787 370.93 182.197C369.82 182.597 369.13 182.817 368.87 182.837C368.67 182.857 368.51 182.827 368.39 182.757C368.25 182.677 368.2 182.567 368.24 182.447C368.3 182.267 368.57 182.037 369.01 181.777C369.37 181.567 369.71 181.457 370.03 181.417C370.35 181.387 370.68 181.417 370.99 181.517L372.3 180.417C371.58 180.187 370.87 180.117 370.15 180.197C369.44 180.277 368.65 180.567 367.76 181.077L367.79 181.087Z" fill="white"/>
<defs>
<linearGradient id="paint0_linear_25_318" x1="52.3901" y1="278.267" x2="79.4901" y2="234.597" gradientUnits="userSpaceOnUse">
<stop stop-color="#E0E0E0" stop-opacity="0"/>
<stop offset="0.39" stop-color="#E0E0E0" stop-opacity="0.44"/>
<stop offset="0.87" stop-color="#E0E0E0"/>
</linearGradient>
<linearGradient id="paint1_linear_25_318" x1="120.05" y1="37.7275" x2="143.33" y2="77.7975" gradientUnits="userSpaceOnUse">
<stop stop-color="#E0E0E0" stop-opacity="0"/>
<stop offset="0.39" stop-color="#E0E0E0" stop-opacity="0.44"/>
<stop offset="0.87" stop-color="#E0E0E0"/>
</linearGradient>
</defs>
</svg>
